<svg id="export" xmlns="http://www.w3.org/2000/svg" viewBox="0 0 590.26 192.23"><defs><style>.cls-1{fill:#75984c;}.cls-2{fill:#83ae57;}.cls-3{fill:#48562a;}</style></defs><title>header</title><g id="überschrift"><path class="cls-1" d="M573.16,137.28q-2.17-10.2-11.27-18.42,4.54-10.65-.87-21.75a12.85,12.85,0,0,0-.44-2.89c-.29-1.47-.5-2.51-.65-3.1a28.05,28.05,0,0,0,5.42-11.32,34.46,34.46,0,0,0,.44-9.32A26.93,26.93,0,0,0,563.84,53q-6.95-14.43-22.76-14.43h-57a25.06,25.06,0,0,0-17.88,7.1,27.09,27.09,0,0,0-2.88,3.23A22.78,22.78,0,0,0,461.48,45a30.08,30.08,0,0,0-7.37-12.65q-13.46-12.87-30.57-4a38.85,38.85,0,0,0-12.14,9.1c-.43.44-.86.85-1.3,1.22A5.88,5.88,0,0,0,409,39.85c-.58.59-1.19,1.19-1.84,1.78s-1.19,1.11-1.63,1.55Q398,33,385.61,33h-1.52A36.09,36.09,0,0,0,372,31.42a27.34,27.34,0,0,0-16.9,7.1,25.83,25.83,0,0,0-8.46,16.42,27.45,27.45,0,0,0,3,15.76,83.91,83.91,0,0,0,.43,22.42,20.09,20.09,0,0,0,.54,2.1,6.07,6.07,0,0,1,.33,1.89c-.05.21-.1.46-.15.69-.5-1.24-1-2.49-1.62-3.8-.58-1.47-1.45-3.55-2.6-6.21-.15,0-.29-.11-.44-.33a1.15,1.15,0,0,1-.21-.56c-.73-1.33-1.59-2.74-2.6-4.22a38.51,38.51,0,0,0-2.39-7.1c-.43-1-.83-2.11-1.19-3.22l-1.19-3.66q-2.18-6.66-3.47-10c-.43-1-.91-2.15-1.41-3.33s-1-2.44-1.41-3.78q-1.31-3.11-2.17-5.88a42.92,42.92,0,0,0-2.38-5.88,48.13,48.13,0,0,0-4.77-7.54A44.55,44.55,0,0,0,317.08,27q-4.33-3.56-6.72-5.33Q295,11.23,280,21.21a24,24,0,0,0-13.22,14.2c-.43,1-.83,2-1.19,3s-.76,1.88-1.19,2.77c-.73,1.93-1.41,3.81-2.06,5.66s-1.19,3.66-1.63,5.44c-.14.3-.65,1.41-1.52,3.33-.72,1.77-1.37,3.44-1.95,5s-1.15,3.15-1.73,4.77c-.15.3-.25.52-.33.67a1,1,0,0,0-.1.44A65.05,65.05,0,0,0,245,68.59a22,22,0,0,0-6.55,3.27c-.11-1-.24-2.08-.39-3.16-.29-2.07-.5-4.14-.65-6.21a31.55,31.55,0,0,1-.65-3.55c-.14-1.19-.29-2.37-.43-3.55a26.42,26.42,0,0,0-4.77-18.87Q221.82,23.2,206,25.32T185.19,43.4a13.4,13.4,0,0,0-.87,2.67,14.19,14.19,0,0,1-1.74,2.21l-.43-.44q-7.59-9.31-18.86-9.32A27.63,27.63,0,0,0,157,37.19q-17.77-4.44-28,7.77c-.53.61-1,1.24-1.47,1.88a59.45,59.45,0,0,0-15-13.42Q98.73,25,85.07,24.54q-5.2,0-10.41.33a52,52,0,0,0-10.18,1.67q-6.95,1.77-10.41,2.88a48.17,48.17,0,0,0-4.55,2.22,13.63,13.63,0,0,1-2.27,1.11A13.35,13.35,0,0,0,45,33.86,39.64,39.64,0,0,0,30,47.18Q16.57,68,29.58,90.45a27.18,27.18,0,0,0-15.06,29.63,27.18,27.18,0,0,0,7.69,14.76,79,79,0,0,0,11.16,19.31q6.18,7.54,18.54,13.09,9.53,4.66,23,5.77a87.78,87.78,0,0,0,20.59-1.11A54.81,54.81,0,0,0,115,164.58a36.07,36.07,0,0,0,10.62-9.1c.38-.26.71-.51,1-.77a23.39,23.39,0,0,0,8.26,11.09,24.6,24.6,0,0,0,22.32,4.33,20.69,20.69,0,0,0,10.41-.89A24.53,24.53,0,0,0,181.28,159a3.35,3.35,0,0,1,.65.89,23.39,23.39,0,0,0,18,11.31,30.66,30.66,0,0,0,4.33,2.89q15,9.1,28.72-.67a29.4,29.4,0,0,0,6-5.56,23.59,23.59,0,0,0,9.4,2.68q10.61,1.11,19.29-6.66a47.9,47.9,0,0,0,5.85-7.1,13.54,13.54,0,0,0,1.52-2,19.32,19.32,0,0,0,1.41-1.66c.5-.67,1-1.37,1.62-2.11q12.36-3.56,16.48-16a12.59,12.59,0,0,0,1-2.89,17.08,17.08,0,0,1,1-3.1,6.31,6.31,0,0,0,.65,1.66c.28.52.57,1,.86,1.44a7.28,7.28,0,0,1,.44,2q2.81,11.55,12.79,16.2a.94.94,0,0,0,.21.67c.14.15.29.3.44.44q1.72,2.9,3.47,5.77a45.51,45.51,0,0,0,3.9,5.55q8.88,12,24.06,10.21a3.22,3.22,0,0,0,.86-.11c.29-.07.65-.18,1.09-.33a23.63,23.63,0,0,0,10.83-3.33,29.35,29.35,0,0,0,6.43-5.05,28.08,28.08,0,0,0,2.71,1.27,22,22,0,0,0,8,4.22,26.68,26.68,0,0,0,21-1.55,29.78,29.78,0,0,0,12.79-11.54,24.81,24.81,0,0,0,5.42,6.43c.43.6.83,1.19,1.19,1.78a9.93,9.93,0,0,0,1.41,1.77,30.93,30.93,0,0,0,13.22,10.77,23.9,23.9,0,0,0,17.12.55,20.73,20.73,0,0,0,8.46-4.66,39.43,39.43,0,0,0,5-1.77,25.63,25.63,0,0,0,7-6,24.16,24.16,0,0,0,16.06,7.34h.44a86.46,86.46,0,0,0,17.77-.45,51,51,0,0,0,10.4.23,16.21,16.21,0,0,1,1.74.11c.72.07,1.37.11,2,.11h29a24.44,24.44,0,0,0,18.43-6.88,12.42,12.42,0,0,1,2-1.55Q575.76,153,573.16,137.28ZM457.53,77.41c0,.56.06,1.13.1,1.72q-9.54,6-11.49,18.2a30.35,30.35,0,0,0-.34,4.68c-.34-.56-.69-1.12-1-1.68-1.15-2-2.38-4-3.68-6.11a52.47,52.47,0,0,0,3-6.43,23.81,23.81,0,0,0,7.05-4.33Q454.3,80.72,457.53,77.41Z"/><path class="cls-2" d="M306.81,57.28a3.11,3.11,0,0,1-.94-.84,14.85,14.85,0,0,1-.95-1.26,3.77,3.77,0,0,0-2.31.63,5.2,5.2,0,0,0-1.78,3.25,22.76,22.76,0,0,0-.32,3.47,19.71,19.71,0,0,0-.1,3.57c.07,1.12.1,2.24.1,3.36s0,2-.1,3-.11,2-.11,2.84c1,0,2,0,2.94-.11s2-.1,2.94-.1a12.15,12.15,0,0,0,1.47-.11,15.42,15.42,0,0,1,1.89-.1,17.4,17.4,0,0,0,.21-3.15,33.22,33.22,0,0,1,.42-6.09,6.87,6.87,0,0,0-.42-1.68A48.82,48.82,0,0,0,306.81,57.28Z"/><path class="cls-2" d="M573.17,130.77q-2.1-9.65-10.92-17.43,4.41-10.08-.84-20.58A11.81,11.81,0,0,0,561,90q-.42-2.1-.63-2.94a26.45,26.45,0,0,0,5.25-10.71,31.61,31.61,0,0,0,.42-8.82A25,25,0,0,0,564.14,51q-6.72-13.65-22-13.65H486.86a24.58,24.58,0,0,0-17.32,6.72,25.64,25.64,0,0,0-2.79,3.05A20.49,20.49,0,0,0,465,43.42a28.24,28.24,0,0,0-7.14-12q-13-12.18-29.61-3.78a37.54,37.54,0,0,0-11.76,8.61c-.42.42-.84.8-1.26,1.15a5.44,5.44,0,0,0-1.05,1.16c-.56.56-1.15,1.12-1.78,1.68s-1.16,1-1.58,1.47a23.13,23.13,0,0,0-19.32-9.66H390a35.67,35.67,0,0,0-11.76-1.47,26.81,26.81,0,0,0-16.37,6.72,24.26,24.26,0,0,0-8.19,15.54,25.39,25.39,0,0,0,2.94,14.91A77.41,77.41,0,0,0,357,89a16.52,16.52,0,0,0,.52,2,5.66,5.66,0,0,1,.31,1.78c-.05.21-.09.44-.14.65-.49-1.16-1-2.35-1.57-3.59s-1.4-3.35-2.52-5.87c-.14,0-.28-.11-.42-.32a1,1,0,0,1-.21-.52,44.32,44.32,0,0,0-2.52-4,34.71,34.71,0,0,0-2.31-6.72c-.42-1-.81-2-1.15-3.05s-.74-2.2-1.16-3.46q-2.1-6.3-3.36-9.45l-1.36-3.15c-.5-1.12-.95-2.31-1.37-3.57q-1.26-2.94-2.1-5.57a39.3,39.3,0,0,0-2.31-5.56,44.77,44.77,0,0,0-4.62-7.14,43.15,43.15,0,0,0-5.67-5q-4.2-3.36-6.51-5-14.91-9.87-29.4-.42a22.88,22.88,0,0,0-12.81,13.44c-.42,1-.81,1.92-1.15,2.83s-.74,1.79-1.16,2.63q-1.05,2.73-2,5.35a53.69,53.69,0,0,0-1.58,5.15q-.21.42-1.47,3.15-1,2.52-1.89,4.72t-1.68,4.52l-.31.63a.83.83,0,0,0-.11.42,63.44,63.44,0,0,0-9.76,2,21.51,21.51,0,0,0-6.34,3.09c-.11-1-.23-2-.38-3q-.42-2.94-.63-5.88a28.33,28.33,0,0,1-.63-3.36l-.42-3.36a24.58,24.58,0,0,0-4.62-17.85q-9.45-12.6-24.78-10.61T197.3,42a13,13,0,0,0-.84,2.52,13.76,13.76,0,0,1-1.68,2.1l-.42-.42q-7.35-8.82-18.27-8.82A27,27,0,0,0,170,36.07q-17.22-4.2-27.09,7.35c-.5.58-1,1.17-1.42,1.78A57.1,57.1,0,0,0,127,32.5q-13.44-8-26.67-8.4-5,0-10.08.31A51.82,51.82,0,0,0,80.36,26q-6.72,1.68-10.08,2.73a46.1,46.1,0,0,0-4.41,2.1,12.78,12.78,0,0,1-2.21,1.05,12.69,12.69,0,0,0-2.2,1.05A38.09,38.09,0,0,0,47,45.52q-13,19.74-.42,40.95a25.68,25.68,0,0,0-12.39,12A25.15,25.15,0,0,0,32,114.5a25.5,25.5,0,0,0,7.45,14,74.14,74.14,0,0,0,10.81,18.27q6,7.14,18,12.39,9.24,4.41,22.26,5.46a86.64,86.64,0,0,0,20-1.05,54,54,0,0,0,18.9-6.93A34.78,34.78,0,0,0,139.58,148c.36-.24.69-.48,1-.72a22.21,22.21,0,0,0,8,10.49,24.25,24.25,0,0,0,21.63,4.09,20.29,20.29,0,0,0,10.08-.84,23.72,23.72,0,0,0,13.23-9.66,3.47,3.47,0,0,1,.63.84,22.73,22.73,0,0,0,17.43,10.71,30.47,30.47,0,0,0,4.2,2.73q14.49,8.61,27.83-.63a28.09,28.09,0,0,0,5.79-5.26,23.27,23.27,0,0,0,9.11,2.53q10.29,1.06,18.69-6.3a45.2,45.2,0,0,0,5.67-6.72,12.78,12.78,0,0,0,1.47-1.89,18.51,18.51,0,0,0,1.37-1.57l1.57-2a22.27,22.27,0,0,0,16-15.12,11.29,11.29,0,0,0,.95-2.73,16.41,16.41,0,0,1,.94-2.94,6.07,6.07,0,0,0,.63,1.58c.28.49.56.94.84,1.36a6.67,6.67,0,0,1,.42,1.89q2.73,10.94,12.39,15.33a.83.83,0,0,0,.21.63q.21.22.42.42c1.12,1.82,2.24,3.65,3.36,5.46a45.2,45.2,0,0,0,3.78,5.25q8.61,11.34,23.31,9.66a3.44,3.44,0,0,0,.84-.1c.28-.07.63-.18,1.05-.32a23,23,0,0,0,10.5-3.15,27.89,27.89,0,0,0,6.23-4.78,26.17,26.17,0,0,0,2.62,1.21,21.61,21.61,0,0,0,7.78,4A26.35,26.35,0,0,0,399.87,160,28.54,28.54,0,0,0,412.26,149a23.63,23.63,0,0,0,5.25,6.09c.42.56.81,1.13,1.16,1.68a9.2,9.2,0,0,0,1.36,1.68,29.85,29.85,0,0,0,12.81,10.19,23.64,23.64,0,0,0,16.59.52,20.28,20.28,0,0,0,8.19-4.41,37.06,37.06,0,0,0,4.83-1.68,24.09,24.09,0,0,0,6.75-5.69,23.62,23.62,0,0,0,15.56,7h.42A85.51,85.51,0,0,0,502.4,164a49.79,49.79,0,0,0,10.08.21c.42,0,1,0,1.68.11s1.33.1,1.89.1h28.14A24,24,0,0,0,562,157.86a12.78,12.78,0,0,1,1.89-1.47Q575.69,145.68,573.17,130.77Zm-112-56.65c0,.53.06,1.07.09,1.64Q452,81.43,450.11,93a30.71,30.71,0,0,0-.33,4.42c-.32-.53-.66-1.05-1-1.59Q447.12,93,445.23,90A49.9,49.9,0,0,0,448.17,84a23.36,23.36,0,0,0,6.83-4.1Q458,77.24,461.15,74.12ZM130.76,131.4c-.42.42-.91.88-1.47,1.37s-1,.94-1.47,1.36a25.34,25.34,0,0,1-6.51,5.67A39.31,39.31,0,0,1,106.82,145a66.42,66.42,0,0,1-15.33.52q-10.29-.63-17.22-4-10.08-4.41-14.18-10.18a89.71,89.71,0,0,1-8.29-15.23,1.52,1.52,0,0,1-.21-.63,4.79,4.79,0,0,1-.84-.52,2,2,0,0,1-.63-.74q-6.51-5.24-2.52-12.39Q51,94.46,59.15,96.12c1.12.42,2.31.81,3.57,1.16s2.45.73,3.57,1.15l1.68.84q8.4-.19,10.29,8.4a11.67,11.67,0,0,1,.42,2.52,7.93,7.93,0,0,1,.21,1.89q2.52,1.69,1.68,1.26a24.18,24.18,0,0,0,3,2.94,9.81,9.81,0,0,0,3.47,2.1,30.59,30.59,0,0,0,16.38,1.05,16.18,16.18,0,0,0,5.67-2.1,5.75,5.75,0,0,0,3.15-4.83,5.86,5.86,0,0,1,.1-1.15,5.94,5.94,0,0,0,.11-1.16,44.78,44.78,0,0,0-7.35-3.67q-4.41-1.78-6.51-2.42-7.14-1.89-14.49-3.57a46.21,46.21,0,0,1-13.65-5.46,5.46,5.46,0,0,0-1.26-.84q-7.56-4.41-4.2-12.8L64.61,81q-1.05-1-3.15-3.57a8.35,8.35,0,0,1-2.1-2.73q-7.77-12.6,0-24.15,2.73-4,9-7.77a36.47,36.47,0,0,0,4.83-2.1l2.1-1q5.46-1.68,8.4-2.31a68.17,68.17,0,0,1,16.17-1.26q9.24,0,18.9,6.09a33,33,0,0,1,11.55,10.71q4.83,7.56-1.68,13.44a10.18,10.18,0,0,1-9.24,2.52,5.68,5.68,0,0,1-.74.31,1.73,1.73,0,0,1-.52.11q-6.72,2.1-11.13-3.15a10,10,0,0,0-2.52-2.1,25.24,25.24,0,0,0-9.45-1.47,48.17,48.17,0,0,0-5.88.42,10.58,10.58,0,0,0-5.25,1.89,4.72,4.72,0,0,0-2.31,3.78,3.6,3.6,0,0,0,.21,1.47,2.3,2.3,0,0,0,.1.73,1.35,1.35,0,0,0,.32.53,17.1,17.1,0,0,0,2.31.63,21.69,21.69,0,0,0,4.83,1.68q2.73.63,5.25,1.26A55.35,55.35,0,0,0,102.2,77c1.26.42,2.55.8,3.88,1.15s2.63.67,3.89,1a51.48,51.48,0,0,1,9,2.94,38,38,0,0,1,14.91,12,33.83,33.83,0,0,1,5.22,14.23v7.48c0,.46-.11.93-.18,1.39Q137.69,124.91,130.76,131.4Zm104,17.54q-5.16,3.88-11.45.1a15.15,15.15,0,0,1-4.83-5H214.1a8.16,8.16,0,0,1-7.35-4q-6.3-9.24-12.49-18.37T182,103.05v31.29q-.42,6.51-6.51,8.4-4,1.26-6.72-.84-5,3.58-10.08.95T154,133.92V124.4c.08-.4.18-.79.24-1.19a47.91,47.91,0,0,0-.24-17V77.65q0-4-.21-6.09a35.47,35.47,0,0,1-.1-4.83,14.82,14.82,0,0,0-.53-4.83,14.17,14.17,0,0,1-1.47-6.3A8.7,8.7,0,0,1,154,49.93q4-4.62,12.81-2.31a1.61,1.61,0,0,0,.63.21,8.54,8.54,0,0,1,4.41.84,11.52,11.52,0,0,1,1.47.63,8.12,8.12,0,0,1,8.82,2.94q2.94,3.57,5.88,7.77a23.48,23.48,0,0,0,1.47,2.52l1.68,2.52,4.2,6.72A68.72,68.72,0,0,0,200,78.28c1.82,2.51,3.43,5,4.83,7.35a6.76,6.76,0,0,0,.42.73,1.59,1.59,0,0,0,.63.53V56.65a8.52,8.52,0,0,1,5-8.19,18.56,18.56,0,0,1,.63-5.25q2.1-6.3,8.19-6.72a10.76,10.76,0,0,1,9.87,4.62q2.94,4.41,1.26,8.4a2.82,2.82,0,0,0,.11.94,5.68,5.68,0,0,0,.31.74c.14,1.26.28,2.48.42,3.67a36.83,36.83,0,0,0,.63,3.68q.84,7.14,1.26,10.92a15.82,15.82,0,0,0,.11,2c.07.63.17,1.3.31,2q0,2.52.42,8,0,4.41-.1,8.92c-.08,3-.18,6-.32,8.92a16.15,16.15,0,0,0,0,3.68,33.77,33.77,0,0,1,.21,3.46q.42,3.78.74,7.67t.94,7.66q.42,3.78.95,7.46c.09.64.21,1.25.31,1.87,0,.11-.08.22-.11.33a25.06,25.06,0,0,0,.61,14.26A10.56,10.56,0,0,1,234.79,148.94ZM354.9,144a10.8,10.8,0,0,1-4.83,1.26c-.42.15-.77.25-1.05.32a3.44,3.44,0,0,1-.84.1,8.92,8.92,0,0,1-9.24-4,22.84,22.84,0,0,1-3.36-4.3q-1.47-2.41-2.73-4.94c-.42-.55-1.15-1.6-2.2-3.15a7.6,7.6,0,0,0-2.63-2.73,8.09,8.09,0,0,1-6.3-6.3c-.14-.42-.28-.87-.42-1.36a5.69,5.69,0,0,1-.21-1.58l-.21-.42a31.18,31.18,0,0,1-3.57-7.77,22.18,22.18,0,0,1-1.15-2.73c-.35-1-.67-2-1-2.94a.57.57,0,0,1-.21-.42H294.42c-.56,1.55-1.12,3-1.68,4.52s-1.05,2.91-1.47,4.3c-.7,1.68-1.61,4.35-2.73,8-1.4,3.93-4.2,5.88-8.4,5.88a7,7,0,0,1-2.1-.21.57.57,0,0,1-.21.42,36.8,36.8,0,0,1-2.73,4.31q-1.47,2-2.94,3.88a22.87,22.87,0,0,1-1.89,2.31,23.23,23.23,0,0,1-3.78,4.41,7.61,7.61,0,0,1-6.93,2.31,8,8,0,0,1-5.06-2c-.07-.72-.17-1.46-.29-2.21-.28-1.12-.49-2-.63-2.73a67.23,67.23,0,0,1-1.34-6.62,36.2,36.2,0,0,1,1.55-3.35,56,56,0,0,1,3-5.36c.42-.84.91-1.85,1.47-3s1.05-2.27,1.47-3.26c1.26-2.94,2.31-5.59,3.15-8q1.05-2.72,2-5.67t2-5.88q-1.68-.19-3.15-.42a11.41,11.41,0,0,1-2.1-.42q-8.4-1.45-8-9.45.21-7.12,6.72-8.18A99.54,99.54,0,0,1,272,75.34a26.93,26.93,0,0,0,4-.21,5.17,5.17,0,0,1,.84-2.1l.42-1.68a14.89,14.89,0,0,1,.63-1.89,40.82,40.82,0,0,1,1.68-4.83c.42-1.26.91-2.63,1.47-4.1s1.19-2.9,1.89-4.3a42.12,42.12,0,0,0,2.31-5.46,49.66,49.66,0,0,1,3.15-9c.28-.84.6-1.72.95-2.63s.73-1.85,1.15-2.83A7.69,7.69,0,0,1,296.1,31q6.51-5.25,13.65-.42,2.52,1.89,6.09,4.62,1.47,1.26,2.94,2.73a12.29,12.29,0,0,1,2.1,3.15.86.86,0,0,0,.21.63l.42.42a25.8,25.8,0,0,1,2,4.72,38.53,38.53,0,0,0,1.78,4.73c.42,1.26.84,2.48,1.26,3.67A30.33,30.33,0,0,0,328,58.75c.56,1.54,1.08,3.08,1.58,4.62a29.45,29.45,0,0,0,1.78,4.41c.28,1.12.59,2.2.95,3.25s.73,2.07,1.15,3a16.3,16.3,0,0,0,.84,2.1,16.3,16.3,0,0,1,.84,2.1,17.06,17.06,0,0,1,0,3.78,9.19,9.19,0,0,1,2.1,1.67q1.26,1.9,1.89,2.94a.64.64,0,0,1,.21.43c1.12,2.24,2,4,2.52,5.25q2.52,5.88,3.57,9a51.17,51.17,0,0,0,3.26,8.51c1.32,2.73,2.55,5.5,3.67,8.29a32.64,32.64,0,0,0,1.36,3.47c.49,1,.95,2.07,1.37,3a25.77,25.77,0,0,0,1.76,4c0,1.59,0,3.18,0,4.77a34.32,34.32,0,0,0,.87,8A9.74,9.74,0,0,1,354.9,144Zm104-4a7.75,7.75,0,0,1-4.41,5.88,9.51,9.51,0,0,1-4.83,1.47,10.34,10.34,0,0,1-5,3.78q-7.14,2.33-12.6-5.46a28.1,28.1,0,0,1-2.1-3.15,19.45,19.45,0,0,0-1.89-2.31q-2.52-1.89-6.4-7.56c-2.59-3.78-4.52-6.64-5.78-8.61-1.68-2.23-3.32-4.51-4.93-6.82s-3.19-4.65-4.73-7l-1.78-2.2a13,13,0,0,1-1.58-2.42,1.17,1.17,0,0,1-.42-.84q-2.1,2.11-2.94,3.15a1.26,1.26,0,0,1-.2.84,15.62,15.62,0,0,1,.73,4.1c.07,1.47.17,2.83.31,4.09a71.91,71.91,0,0,1,0,7.77A17.68,17.68,0,0,0,400,129c.07,1.47.1,2.83.1,4.09a7.84,7.84,0,0,1-.63,3.15,12.39,12.39,0,0,1-6.51,6.3,11.52,11.52,0,0,1-8.82.63,13.48,13.48,0,0,1-5.24-3.15,8.72,8.72,0,0,1-3.71-1.53c0-.47-.06-.93-.11-1.41a24,24,0,0,0-2.21-7.87L371.73,127v-9.34q0-6.2.43-12.5a15.77,15.77,0,0,0-.22-2.94,22.17,22.17,0,0,1,0-6.09,15.64,15.64,0,0,1,1.26-5.66,32.71,32.71,0,0,0-.73-3.79,31.85,31.85,0,0,1-.74-3.77,48.54,48.54,0,0,1-.2-17.43,7.7,7.7,0,0,0,.2-2.94,24.77,24.77,0,0,1-.41-3.57c-.29-.28-.53-.53-.74-.74a2.25,2.25,0,0,1-.52-.94,8.09,8.09,0,0,1-1.47-6.09q.82-8,10.29-8.82a14.93,14.93,0,0,1,8.39,1.89,20.39,20.39,0,0,1,4-.42q8.81,0,8.81,9a56,56,0,0,1-.21,5.67,13.28,13.28,0,0,0,0,3.36q.21,2.1.21,3.36v4.83l.63-.42q1.26-1.47,4.2-4.41c.7-.7,1.44-1.47,2.21-2.31s1.57-1.68,2.41-2.52l4.31-4.31q2.21-2.2,4.72-4.51,4.2-3.78,6.09-5.67L427.59,43a21.08,21.08,0,0,1,7.35-5.25q6.72-3.57,12,1.26a9.4,9.4,0,0,1,3.15,7.14,11.07,11.07,0,0,1,2.31,3.36,8.68,8.68,0,0,1-2.1,9.87Q448,61.69,445.44,64a10.26,10.26,0,0,1-5.67,2.73,2.3,2.3,0,0,0-.73.1,1.78,1.78,0,0,1-.53.11,20.82,20.82,0,0,0-2.41,2.94c-.77,1.12-1.51,2.1-2.21,2.94-.28,2.24-1.47,5-3.57,8.4a41.9,41.9,0,0,1-4,6.3,9.76,9.76,0,0,0,1.47,1.89l1.47,1.47q2.52,3.57,4.83,7.24t4.62,7.45a56.42,56.42,0,0,1,3.36,7.14,10.14,10.14,0,0,0,1.05,1.68,12.79,12.79,0,0,0,1.26,1.47,50.73,50.73,0,0,0,3.36,4.2,81.9,81.9,0,0,0,6.51,8.4,10.91,10.91,0,0,1,1.16,1.37,10.74,10.74,0,0,0,1.15,1.36,19.52,19.52,0,0,0,1.26,2.1A8.92,8.92,0,0,1,458.88,140Zm94.34,1.26q-2.1,2.1-1.68,1.47a8.68,8.68,0,0,1-7.14,2.52H532.64q-4.2,0-8.29.11c-2.73.07-5.5,0-8.3-.11h-9a21.57,21.57,0,0,1-5.25-.63,47.88,47.88,0,0,1-15.33.84,1.17,1.17,0,0,1-.84-.21q-8.82-.19-8.4-9.24c0-1.11,0-2.23-.1-3.36s-.11-2.23-.11-3.36c0-4.89.07-8.61.21-11.13v-3.78a56.28,56.28,0,0,1,.42-5.67q0-1-.21-4.41-2.52-.63-5.25-1.36a8.78,8.78,0,0,1-4.62-3,8.58,8.58,0,0,1-2.73-8.19c.42-3.49,2-5.77,4.83-6.82a41.35,41.35,0,0,1,8.4-2.2,33.11,33.11,0,0,0-.63-3.47,15.07,15.07,0,0,1-.42-3.46,42.06,42.06,0,0,1-.63-12.18,14.68,14.68,0,0,1,.32-2.84,15.45,15.45,0,0,0,.31-3q.21-8.61,9.24-8.61h55.65a8.52,8.52,0,0,1,8.19,5,8.42,8.42,0,0,1-.63,9,8.39,8.39,0,0,1,.84,6.3q-1.47,6.72-8.19,6.93a58.88,58.88,0,0,1-7,0q-3.46-.21-6.83-.21H516.47q-5.25-.21-10.5,0h-.63v6.08a9.71,9.71,0,0,0,1.37-.1,9.58,9.58,0,0,1,1.36-.1q3.15,0,6.09.1t6.09.1h16.8q7.14,0,8.61,7.15a9.52,9.52,0,0,1,0,4,9,9,0,0,1,1.68,2.3,9.53,9.53,0,0,1-.21,9.66c-1.82,3.09-4.62,4.41-8.4,4H505.34v8.82h17.22c5.32,0,9.31.08,12,.21a7.35,7.35,0,0,0,2.21.11c.77-.07,1.57-.11,2.41-.11H544a13.57,13.57,0,0,1,4.62.63c.42.29,1.47,1,3.15,2.31q5,4.64,5.88,8.61C558.33,134.27,556.86,138.06,553.22,141.27Z"/><path class="cls-3" d="M294.73,16.33a23.54,23.54,0,0,1,4.41.43,22.61,22.61,0,0,1,4.33-.42q7.5,0,15.1,5,2.31,1.68,6.51,5a43.15,43.15,0,0,1,5.67,5,44.77,44.77,0,0,1,4.62,7.14,39.3,39.3,0,0,1,2.31,5.56q.84,2.63,2.1,5.57c.42,1.26.87,2.45,1.37,3.57l1.36,3.15q1.26,3.15,3.36,9.45c.42,1.26.8,2.41,1.16,3.46s.73,2.07,1.15,3.05.75,1.82,1.06,2.63c.09-1.46.21-2.9.39-4.33a27.45,27.45,0,0,1-3-15.76,25.83,25.83,0,0,1,8.46-16.42,27.34,27.34,0,0,1,16.9-7.1h1.13a29.71,29.71,0,0,1,5.16-.81l1.38,0A35,35,0,0,1,390,32.08h1.47a22.87,22.87,0,0,1,17.64,7.65,6,6,0,0,1,1-1.1c.44-.37.87-.78,1.3-1.22a38.85,38.85,0,0,1,12.14-9.1,29.32,29.32,0,0,1,13-3.6,23.83,23.83,0,0,1,4.63-.46q8.94,0,16.65,7.2a28.24,28.24,0,0,1,7.14,12,22.17,22.17,0,0,1,1.18,2.24s0,0,0,0A25.34,25.34,0,0,1,475.32,40a25,25,0,0,1,11.54-2.65h55.23q15.33,0,22,13.65a24.55,24.55,0,0,1,2.26,14.47,29.48,29.48,0,0,1-.3,3.21,31.41,31.41,0,0,1-.2,5.78,36,36,0,0,1-.55,5.36,27.44,27.44,0,0,1-4.42,10c0,.1,0,.18.06.29a11.81,11.81,0,0,1,.42,2.72,23.92,23.92,0,0,1,2.52,15.07,24,24,0,0,1-.58,6.54c5.22,4.92,8.51,10.39,9.82,16.4a29.19,29.19,0,0,1,.24,8.36q1.62,14.58-9.79,25.23a12.42,12.42,0,0,0-2,1.55,24.35,24.35,0,0,1-17.21,6.9c-.4,0-.81,0-1.22,0h-29c-.58,0-1.23,0-2-.11a16.21,16.21,0,0,0-1.74-.11,26.2,26.2,0,0,1-3.32.18q-2.91,0-7.08-.41a76.78,76.78,0,0,1-10.69.7q-3.42,0-7.08-.25h-.44a24.16,24.16,0,0,1-16.06-7.34,25.63,25.63,0,0,1-7,6,39.43,39.43,0,0,1-5,1.77,20.73,20.73,0,0,1-8.46,4.66,26.55,26.55,0,0,1-8.08,1.32,22.84,22.84,0,0,1-9-1.87,30.93,30.93,0,0,1-13.22-10.77,9.93,9.93,0,0,1-1.41-1.77c-.36-.59-.76-1.18-1.19-1.78a24.81,24.81,0,0,1-5.42-6.43,29.78,29.78,0,0,1-12.79,11.54,27,27,0,0,1-12.24,3,28.1,28.1,0,0,1-8.78-1.46,22,22,0,0,1-8-4.22,28.08,28.08,0,0,1-2.71-1.27,29.35,29.35,0,0,1-6.43,5.05,23.63,23.63,0,0,1-10.83,3.33c-.44.15-.8.26-1.09.33a3.22,3.22,0,0,1-.86.11,33.53,33.53,0,0,1-3.81.23q-12.51,0-20.25-10.44a45.51,45.51,0,0,1-3.9-5.55q-1.74-2.88-3.47-5.77c-.15-.14-.3-.29-.44-.44a.94.94,0,0,1-.21-.67,22.33,22.33,0,0,1-12.15-14,21.67,21.67,0,0,1-8.36,6.2,22.15,22.15,0,0,1-7.67,6.5,1.66,1.66,0,0,1-.18.19A45.2,45.2,0,0,1,277.2,156a27.32,27.32,0,0,1-6.08,4.08c-1,1.25-2.17,2.53-3.46,3.86q-7.59,6.79-16.66,6.8a25.9,25.9,0,0,1-2.63-.14,23.59,23.59,0,0,1-9.4-2.68,29.4,29.4,0,0,1-6,5.56,25,25,0,0,1-14.57,5.06,27.12,27.12,0,0,1-14.15-4.39,30.66,30.66,0,0,1-4.33-2.89,23.34,23.34,0,0,1-17.71-10.88c-.63.24-1.27.47-1.93.66-.21.08-.42.14-.63.2a24.47,24.47,0,0,1-12,8,20.25,20.25,0,0,1-6.84,1.18,23,23,0,0,1-3.57-.29,27.11,27.11,0,0,1-7.17,1,24.73,24.73,0,0,1-15.15-5.33,23.71,23.71,0,0,1-7.09-8.36,54.39,54.39,0,0,1-7.53,3.47,40,40,0,0,1-5.3,3.67,54.81,54.81,0,0,1-19.51,7.32,89.07,89.07,0,0,1-15,1.29q-2.79,0-5.58-.18-13.44-1.11-23-5.77-12.36-5.55-18.54-13.09a79,79,0,0,1-11.16-19.31,28,28,0,0,1-5.42-31.74A26.86,26.86,0,0,1,29.58,90.45Q16.58,68,30,47.18A39.64,39.64,0,0,1,45,33.86a13.35,13.35,0,0,1,2.28-1.11,13.63,13.63,0,0,0,2.27-1.11,48.17,48.17,0,0,1,4.55-2.22q3.47-1.11,10.41-2.88a52,52,0,0,1,10.18-1.67q5.2-.33,10.41-.33c.73,0,1.46.09,2.19.15,1-.12,2-.22,3-.28q5-.32,10.08-.31,13.23.42,26.67,8.4a66.12,66.12,0,0,1,8.83,6.66A24,24,0,0,1,148.08,36a32.94,32.94,0,0,1,4.77.36,24.7,24.7,0,0,1,8.5-1.42A36.3,36.3,0,0,1,170,36.07a27,27,0,0,1,6.09,1.26,22.72,22.72,0,0,1,10.46,2.42Q192.09,27.18,206,25.32a31.24,31.24,0,0,1,4.14-.29,27,27,0,0,1,4.36.35c1-.22,1.94-.41,3-.55a32,32,0,0,1,4.08-.27q12.54,0,20.7,10.88a24.58,24.58,0,0,1,4.62,17.85l.42,3.36a28.33,28.33,0,0,0,.63,3.36q.21,2.94.63,5.88c.09.59.15,1.15.22,1.73,1.18-.27,2.37-.52,3.58-.72a19.94,19.94,0,0,1,2.92-1.12l.07,0,.19-.39c.58-1.62,1.15-3.21,1.73-4.77s1.23-3.22,1.95-5c.87-1.92,1.38-3,1.52-3.33q.66-2.67,1.63-5.44c.65-1.85,1.33-3.73,2.06-5.66.43-.89.83-1.81,1.19-2.77s.76-2,1.19-3A24,24,0,0,1,280,21.21a26.28,26.28,0,0,1,14.72-4.88M447.14,93.07a24.26,24.26,0,0,1,8.47-12.52,22.27,22.27,0,0,1,2-2c0-.32,0-.64,0-1-.55.51-1.1,1-1.65,1.48q-2.38,2.36-4.71,4.41a24.17,24.17,0,0,1-4.05,2.87c-.63,1.38-1.27,2.62-1.9,3.71.66,1,1.3,2,1.91,3M294.74,4.33h0a37.93,37.93,0,0,0-20.54,6.34A36.09,36.09,0,0,0,255.63,31c-.3.71-.57,1.37-.82,2a41.15,41.15,0,0,0-2.74-4.46L252,28.4l-.12-.16c-7.69-10.26-18.17-15.68-30.3-15.68a43.49,43.49,0,0,0-5.63.37c-.62.08-1.24.18-1.88.29-1.29-.12-2.59-.19-3.9-.19a42.85,42.85,0,0,0-5.72.39c-9.66,1.29-17.52,5.47-23.18,12.26q-1.56-.22-3.15-.3a42,42,0,0,0-6-1.15A48.14,48.14,0,0,0,161.35,23a37.73,37.73,0,0,0-9.64,1.22c-1.22-.11-2.44-.16-3.63-.16a37.84,37.84,0,0,0-10.24,1.37q-2.13-1.56-4.43-3l-.15-.1-.16-.09c-10.68-6.34-21.58-9.73-32.41-10.08h-.38c-3.6,0-7.25.11-10.83.34-.76,0-1.55.11-2.4.2-.5,0-1-.08-1.62-.1h-.39c-3.71,0-7.47.12-11.17.36a64.39,64.39,0,0,0-12.46,2c-4.89,1.26-8.5,2.26-11,3.07l-.59.19-.57.25a58.25,58.25,0,0,0-5.79,2.85l-.11.06-.11.07-.19.09a25.81,25.81,0,0,0-3.93,1.87A51.66,51.66,0,0,0,20.07,40.45l-.07.11-.08.12c-9.36,14.53-11.19,30.15-5.49,45.7A41.39,41.39,0,0,0,6.11,97.62L6,97.79,6,98A40,40,0,0,0,12,141.55a89,89,0,0,0,12.05,20.2c5.25,6.42,12.9,11.93,22.73,16.36,7.64,3.7,16.75,6,27.08,6.86h.2c2.11.13,4.25.2,6.36.2a101.51,101.51,0,0,0,17-1.46,67.14,67.14,0,0,0,23.61-8.84c1.17-.68,2.31-1.4,3.41-2.16a37.46,37.46,0,0,0,3.17,2.66,36.59,36.59,0,0,0,22.36,7.74,38.78,38.78,0,0,0,7.87-.83c1,.08,1.92.12,2.87.12a32.21,32.21,0,0,0,10.61-1.79,37,37,0,0,0,9.37-4.42,35,35,0,0,0,14.44,6.42c.85.57,1.82,1.16,2.91,1.8a39,39,0,0,0,20.29,6.08,36.79,36.79,0,0,0,21.51-7.27c.7-.49,1.38-1,2.05-1.54a36.81,36.81,0,0,0,5.3.82,36.12,36.12,0,0,0,3.73.19c9.06,0,17.37-3.32,24.67-9.86l.29-.27.28-.28c.89-.92,1.75-1.84,2.56-2.75a40.4,40.4,0,0,0,6.3-4.55l.3-.26.29-.28a61.74,61.74,0,0,0,5.54-6.27,34.31,34.31,0,0,0,5-3.86,33.92,33.92,0,0,0,6.37,5q1.23,2.06,2.47,4.11a58.91,58.91,0,0,0,4.7,6.72c7.41,9.86,17.68,15.07,29.73,15.07a44.59,44.59,0,0,0,4.71-.26,14.62,14.62,0,0,0,3-.46l.31-.08a36,36,0,0,0,14.6-4.79l.06,0,.06,0c.48-.29,1-.58,1.42-.88a34.88,34.88,0,0,0,6.09,2.44,40,40,0,0,0,12.34,2,39.13,39.13,0,0,0,17.54-4.24,45,45,0,0,0,6.72-4,42.7,42.7,0,0,0,17.28,13.49,34.69,34.69,0,0,0,13.77,2.85,38.6,38.6,0,0,0,11.52-1.82A32.6,32.6,0,0,0,459.7,184c1-.35,2.14-.8,3.54-1.35l.91-.35.83-.49c.55-.33,1.08-.66,1.6-1a36.24,36.24,0,0,0,14.54,4l.39,0h.43c2.56.16,5.07.25,7.48.25a90.91,90.91,0,0,0,10.92-.63c2.6.23,4.85.34,6.85.34,1.33,0,2.54-.05,3.66-.15H511a29.48,29.48,0,0,0,3.18.18H543c.48,0,1,0,1.45,0a36.59,36.59,0,0,0,25.42-10.15l.15-.14.36-.26.75-.51.66-.62c10-9.33,14.71-21,13.67-34a41.43,41.43,0,0,0-.47-10.39l0-.28-.06-.28a41.75,41.75,0,0,0-9-18c0-.56,0-1.13,0-1.69a34.81,34.81,0,0,0-2.06-17.19,38.42,38.42,0,0,0,3.19-9l0-.23,0-.23a49.2,49.2,0,0,0,.71-6.53,44,44,0,0,0,.25-6.17c.11-.9.19-1.8.24-2.68a36.54,36.54,0,0,0-3.44-20.78v-.06c-6.47-13.12-18.12-20.34-32.82-20.34H486.86a37.23,37.23,0,0,0-15.77,3.37A40.59,40.59,0,0,0,466.32,23l-.14-.14-.15-.14c-7.4-6.92-15.77-10.43-24.85-10.43a35.88,35.88,0,0,0-5.9.5,41.57,41.57,0,0,0-17.09,4.82A50.77,50.77,0,0,0,408.11,24a35.59,35.59,0,0,0-16.45-3.93,48,48,0,0,0-12-1.5l-1.77,0h-.4a41.11,41.11,0,0,0-5.7.79h-.41l-.2,0A39.18,39.18,0,0,0,347,29.6c-.65.59-1.29,1.2-1.89,1.82a55.55,55.55,0,0,0-5-7.47l-.24-.3-.26-.28A54,54,0,0,0,332.48,17c-2.93-2.34-5.17-4.07-6.84-5.29l-.22-.16-.23-.15c-7-4.66-14.34-7-21.72-7a35,35,0,0,0-4.33.27,36.23,36.23,0,0,0-4.4-.28Z"/></g></svg>