<svg xmlns="http://www.w3.org/2000/svg" xmlns:xlink="http://www.w3.org/1999/xlink" viewBox="0 0 512 512"><defs><style>.cls-1{fill:none;}.cls-2{fill:#d12424;}.cls-3,.cls-5{fill:#fff;}.cls-11,.cls-3{opacity:0.1;}.cls-4{opacity:0.5;}.cls-6,.cls-9{opacity:0.15;}.cls-7{fill:#2b0808;}.cls-8{fill:#437335;}.cls-10{clip-path:url(#clip-path);}</style><clipPath id="clip-path"><path class="cls-1" d="M268.43,129.26c-107.33,0-179.18,72.08-179.18,161s52.12,161,116.42,161a87.37,87.37,0,0,0,35.65-7.69,36.18,36.18,0,0,1,29.36,0,87.37,87.37,0,0,0,35.65,7.69c64.3,0,116.42-72.08,116.42-161S383,129.26,268.43,129.26Z"/></clipPath></defs><title>apple</title><g id="apple"><path class="cls-2" d="M268.43,129.26c-107.33,0-179.18,72.08-179.18,161s52.12,161,116.42,161a87.37,87.37,0,0,0,35.65-7.69,36.18,36.18,0,0,1,29.36,0,87.37,87.37,0,0,0,35.65,7.69c64.3,0,116.42-72.08,116.42-161S383,129.26,268.43,129.26Z"/><path class="cls-3" d="M101.68,290.25c0-87.23,69.18-158.25,173.15-160.9-2.11,0-4.23-.09-6.4-.09-107.33,0-179.18,72.08-179.18,161s52.12,161,116.42,161q3.12,0,6.2-.23C150.47,446.53,101.68,376.28,101.68,290.25Z"/><g class="cls-4"><path class="cls-5" d="M142.69,284.76h0c6.28-74.68,44-107.56,119.77-101.19h0C208.89,187.16,155.91,231,142.69,284.76Z"/></g><g class="cls-6"><path d="M268.43,129.26a226.89,226.89,0,0,0-25.6,1.43A127.16,127.16,0,1,1,90.79,268a161.47,161.47,0,0,0-1.54,22.23c0,88.92,52.12,161,116.42,161a87.37,87.37,0,0,0,35.65-7.69,36.18,36.18,0,0,1,29.36,0,87.37,87.37,0,0,0,35.65,7.69c64.3,0,116.42-72.08,116.42-161S383,129.26,268.43,129.26Z"/></g><path class="cls-7" d="M350.6,60.75a20.47,20.47,0,0,1,4,.38c.84.16,1.67.36,2.48.58l.24.06c.77.22,1.52.46,2.26.73l.34.12c.72.26,1.41.55,2.1.86l.37.17c.68.31,1.33.64,2,1l.36.2c.64.36,1.27.74,1.88,1.13l.31.21c.59.39,1.17.8,1.73,1.22l.29.23c.53.4,1,.82,1.54,1.25l.38.32c.48.44,1,.88,1.42,1.34l.48.48c.43.43.84.88,1.25,1.33l.53.61c.37.43.73.88,1.09,1.33.19.24.37.48.55.73s.53.71.78,1.08.5.72.74,1.09l.5.8c.31.5.6,1,.88,1.49l.35.63q.48.9.93,1.83l.19.4A41.92,41.92,0,0,1,383.5,91h0c2.54,11.28.12,22.73-8.2,28.52a31.09,31.09,0,0,1-19.14,6.06c-6.26,0-12.9-1.21-21.37-1.21-9,0-20,1.36-34.8,7,90.44,12.26,122.76,78.75,122.76,159,0,86-48.79,156.28-110.19,160.77h0c-1,.07-2,.13-3.07.17h0q-1.56.06-3.12.06a85.42,85.42,0,0,1-20.5-2.49,89,89,0,0,1-8.75-2.64c-.72-.25-1.44-.52-2.15-.8-1.43-.55-2.84-1.14-4.25-1.76-.65-.29-1.3-.55-2-.8l-.45-.16c-.53-.19-1.07-.37-1.61-.54l-.39-.11c-.59-.18-1.18-.34-1.78-.48l-.22-.05c-.68-.16-1.36-.3-2-.42a35.47,35.47,0,0,0-6.24-.55,36.12,36.12,0,0,0-14.66,3.11c-1.41.62-2.82,1.21-4.25,1.76-.71.28-1.43.55-2.15.8a89,89,0,0,1-8.75,2.64c-1.48.36-3,.69-4.46,1a84.87,84.87,0,0,1-9.84,1.29h0c-1,.07-1.9.12-2.85.16h-.41q-1.46.06-2.94.06c-64.3,0-116.42-72.08-116.42-161,0-1.72,0-3.43.09-5.14,0-.4,0-.79,0-1.19.06-1.51.14-3,.24-4.5,0-.19,0-.38,0-.57Q90,273.38,90.79,268h0c9.95-71.38,67.64-127.81,152-137.33h0q6-.67,12.16-1l1.17-.07c1.58-.08,3.18-.15,4.78-.2l1.51,0q3-.08,6-.08c2.17,0,4.29,0,6.4.09h0l.7,0c3.19-5.08,6.92-10.66,11.07-16.38.77-1.06,1.55-2.12,2.35-3.19,2.4-3.22,4.92-6.47,7.53-9.67.75-.92,1.51-1.84,2.28-2.75q1.39-1.65,2.8-3.29c.61-.7,1.23-1.4,1.85-2.09,3.09-3.47,6.27-6.82,9.49-10,12.69-12.33,26.07-21.3,37.7-21.3m0-9h0c-12.89,0-27.69,8-44,23.85-3.26,3.16-6.6,6.66-9.94,10.41l-1.92,2.18c-.89,1-1.81,2.1-2.9,3.41-.8.94-1.58,1.89-2.36,2.84-2.6,3.19-5.22,6.55-7.78,10-.82,1.1-1.62,2.2-2.42,3.29-3,4.18-5.92,8.39-8.64,12.56h-2.24c-1.88,0-3.91,0-6.21.09l-1.13,0-.44,0c-1.64,0-3.32.12-5,.21l-.39,0-.84,0c-4.24.25-8.5.61-12.64,1.07-42.7,4.82-80.4,21.35-109,47.8a161.28,161.28,0,0,0-50.9,97.23c-.53,3.81-.94,7.66-1.2,11.45l0,.4v.2c-.1,1.56-.19,3.15-.25,4.75v.28c0,.33,0,.65,0,1-.06,2.05-.09,3.78-.09,5.42,0,44.89,12.71,87.19,35.81,119.12,11.43,15.8,24.8,28.25,39.75,37a97.77,97.77,0,0,0,49.86,13.88c1,0,2,0,3.25-.06l.33,0h.13c1,0,1.89-.09,2.81-.15h0l.33,0a92.8,92.8,0,0,0,10.87-1.42c1.64-.31,3.3-.67,4.93-1.07a97.58,97.58,0,0,0,9.63-2.9l2.37-.88c1.55-.6,3.12-1.25,4.65-1.93a26.91,26.91,0,0,1,11-2.34,27.43,27.43,0,0,1,4.69.41c.49.09,1,.19,1.55.32l.15,0,1.36.37.18.05.09,0c.37.11.76.25,1.23.41l.3.11.06,0c.53.2,1,.39,1.44.59,1.53.68,3.1,1.33,4.66,1.93l2.35.88a98.58,98.58,0,0,0,9.64,2.9,95.19,95.19,0,0,0,22.65,2.75c1.11,0,2.27,0,3.45-.07h.13c1.06,0,2.18-.1,3.31-.19,32.55-2.37,62.69-21.44,84.88-53.68,21.7-31.53,33.65-72.75,33.65-116.06,0-45-9.77-82-29.05-110C388.37,159.37,369,143.87,345,133.86l1.34.12c3.38.29,6.57.57,9.85.57a40.22,40.22,0,0,0,24.28-7.67c10.81-7.52,15.36-21.94,11.89-37.67l-.05-.3-.06-.21a52,52,0,0,0-3.51-10.16l-.18-.38-.06-.11c-.36-.77-.74-1.51-1.12-2.22l-.42-.76c-.35-.61-.71-1.22-1.07-1.81l-.62-1c-.29-.45-.59-.9-.9-1.34s-.62-.88-.94-1.31l-.69-.91c-.41-.52-.85-1.06-1.33-1.62l-.66-.75c-.51-.57-1-1.13-1.53-1.64l-.53-.53-.07-.07c-.62-.61-1.2-1.16-1.77-1.65l-.39-.34-.09-.08c-.65-.56-1.27-1.07-1.91-1.56l-.06,0-.3-.23c-.69-.52-1.4-1-2.17-1.54l0,0-.37-.25c-.73-.47-1.5-.94-2.36-1.42l-.08,0-.38-.21q-1.2-.66-2.49-1.26l-.48-.22c-.88-.39-1.78-.76-2.65-1.08l-.35-.13-.09,0c-1-.35-1.93-.65-2.86-.91l-.33-.09c-1.08-.29-2.1-.53-3.11-.73a30,30,0,0,0-5.71-.54Z"/><path class="cls-8" d="M264.56,152.39c1.72,1.61,17.29-13.59,30.49-19.13,46.85-19.62,58.14,1.61,80.25-13.77,18.29-12.73,8.13-52.78-20.7-58.36C318.23,54.08,260.5,148.59,264.56,152.39Z"/><path class="cls-9" d="M354.6,61.13c15.72,3,25.87,16.32,28.9,29.84a34,34,0,0,0-12.93-5.49c-36.37-7-110.07,63.11-106,66.91C260.5,148.59,318.23,54.08,354.6,61.13Z"/><g class="cls-10"><g class="cls-6"><path d="M350.6,60.75a20.47,20.47,0,0,1,4,.38c28.83,5.58,39,45.63,20.7,58.36a31.13,31.13,0,0,1-19.13,6.06c-6.27,0-12.91-1.22-21.38-1.22-10,0-22.41,1.68-39.74,8.93-12.54,5.26-27.22,19.25-30.13,19.25a.51.51,0,0,1-.36-.12c-3.91-3.66,49.61-91.64,86-91.64m0-8c-16.55,0-36.13,13.38-58.21,39.77-16.23,19.41-30.3,42.05-34.51,52.72-.94,2.37-3.42,8.65,1.21,13a8.49,8.49,0,0,0,5.83,2.28c3.89,0,7-2.3,13.68-7.34,5.57-4.16,13.19-9.87,19.54-12.53,17.78-7.44,29.43-8.31,36.65-8.31,4.2,0,8,.33,11.61.65,3.35.29,6.52.57,9.77.57a39.17,39.17,0,0,0,23.7-7.5c10.35-7.2,14.79-21.08,11.59-36.22-4-18.82-17.85-33.17-35.34-36.56a29.6,29.6,0,0,0-5.52-.52Z"/></g></g><g class="cls-11"><path d="M300,131.3c42.73-16.17,54,3,75.31-11.81,8.32-5.79,10.74-17.24,8.2-28.52h0a41.92,41.92,0,0,0-2.95-8.63l-.19-.4q-.45-.93-.93-1.83l-.35-.63c-.28-.5-.57-1-.88-1.49-.16-.27-.33-.53-.5-.8s-.49-.73-.74-1.09-.51-.73-.78-1.08-.36-.49-.55-.73c-.36-.45-.72-.9-1.09-1.33l-.53-.61c-.41-.45-.82-.9-1.25-1.33l-.48-.48c-.46-.46-.94-.9-1.42-1.34l-.38-.32c-.5-.43-1-.85-1.54-1.25l-.29-.23c-.56-.42-1.14-.83-1.73-1.22l-.31-.21c-.61-.39-1.24-.77-1.88-1.13l-.36-.2c-.65-.35-1.3-.68-2-1l-.37-.17c-.69-.31-1.38-.6-2.1-.86l-.34-.12c-.74-.27-1.49-.51-2.26-.73l-.24-.06c-.81-.22-1.64-.42-2.48-.58-12.5-2.42-27.53,7.15-41.7,20.92-3.22,3.13-6.4,6.48-9.49,10-.62.69-1.24,1.39-1.85,2.09q-1.41,1.64-2.8,3.29c-.77.91-1.53,1.83-2.28,2.75-2.61,3.2-5.13,6.45-7.53,9.67-.8,1.07-1.58,2.13-2.35,3.19-4.15,5.72-7.88,11.3-11.07,16.38l-.7,0h0c-2.11,0-4.23-.09-6.4-.09q-3,0-6,.08h-.23s18.45,66.8,18.45,150.3S262.22,441,262.22,441h0c.69.12,1.37.26,2,.42l.22.05c.6.14,1.19.3,1.78.48l.39.11c.54.17,1.08.35,1.61.54l.45.16c.66.25,1.31.51,2,.8,1.41.62,2.82,1.21,4.25,1.76.71.28,1.43.55,2.15.8a89,89,0,0,0,8.75,2.64,85.42,85.42,0,0,0,20.5,2.49q1.56,0,3.12-.06h0c1,0,2.05-.1,3.07-.17h0c61.4-4.49,110.19-74.74,110.19-160.77C422.75,210.05,390.43,143.56,300,131.3Z"/></g></g></svg>