<svg id="export" xmlns="http://www.w3.org/2000/svg" xmlns:xlink="http://www.w3.org/1999/xlink" viewBox="0 0 762 762"><defs><style>.cls-1{fill:url(#Unbenannter_Verlauf_267);}.cls-2{opacity:0.1;}.cls-3{opacity:0.03;}.cls-4{fill:url(#Unbenannter_Verlauf_18);}.cls-5{fill:url(#Unbenannter_Verlauf_18-2);}.cls-6{fill:url(#Unbenannter_Verlauf_18-3);}.cls-7{fill:url(#Unbenannter_Verlauf_18-4);}.cls-8{fill:url(#Unbenannter_Verlauf_18-5);}.cls-9{fill:url(#Unbenannter_Verlauf_18-6);}.cls-10{fill:url(#Unbenannter_Verlauf_18-7);}.cls-11{fill:url(#Unbenannter_Verlauf_18-8);}.cls-12{fill:url(#Unbenannter_Verlauf_18-9);}.cls-13{fill:url(#Unbenannter_Verlauf_18-10);}.cls-14{fill:url(#Unbenannter_Verlauf_18-11);}.cls-15{fill:url(#Unbenannter_Verlauf_18-12);}.cls-16{fill:url(#Unbenannter_Verlauf_18-13);}.cls-17{fill:url(#Unbenannter_Verlauf_18-14);}.cls-18{fill:url(#Unbenannter_Verlauf_18-15);}.cls-19{fill:url(#Unbenannter_Verlauf_18-16);}.cls-20{fill:url(#Unbenannter_Verlauf_18-17);}.cls-21{fill:url(#Unbenannter_Verlauf_18-18);}.cls-22{fill:url(#Unbenannter_Verlauf_18-19);}.cls-23{fill:url(#Unbenannter_Verlauf_18-20);}.cls-24{fill:url(#Unbenannter_Verlauf_18-21);}.cls-25{fill:url(#Unbenannter_Verlauf_18-22);}.cls-26{fill:url(#Unbenannter_Verlauf_18-23);}.cls-27{fill:url(#Unbenannter_Verlauf_18-24);}.cls-28{fill:url(#Unbenannter_Verlauf_18-25);}.cls-29{fill:url(#Unbenannter_Verlauf_18-26);}.cls-30{fill:url(#Unbenannter_Verlauf_18-27);}.cls-31{fill:url(#Unbenannter_Verlauf_18-28);}.cls-32{fill:url(#Unbenannter_Verlauf_18-29);}.cls-33{fill:url(#Unbenannter_Verlauf_18-30);}.cls-34{fill:url(#Unbenannter_Verlauf_18-31);}.cls-35{fill:url(#Unbenannter_Verlauf_18-32);}.cls-36{fill:url(#Unbenannter_Verlauf_18-33);}.cls-37{fill:url(#Unbenannter_Verlauf_18-34);}.cls-38{fill:url(#Unbenannter_Verlauf_18-35);}.cls-39{fill:url(#Unbenannter_Verlauf_18-36);}.cls-40{fill:url(#Unbenannter_Verlauf_18-37);}.cls-41{fill:url(#Unbenannter_Verlauf_18-38);}.cls-42{fill:url(#Unbenannter_Verlauf_18-39);}.cls-43{fill:url(#Unbenannter_Verlauf_18-40);}.cls-44{fill:url(#Unbenannter_Verlauf_18-41);}.cls-45{fill:url(#Unbenannter_Verlauf_18-42);}.cls-46{fill:url(#Unbenannter_Verlauf_18-43);}.cls-47{fill:url(#Unbenannter_Verlauf_18-44);}.cls-48{fill:url(#Unbenannter_Verlauf_18-45);}.cls-49{fill:url(#Unbenannter_Verlauf_18-46);}.cls-50{fill:url(#Unbenannter_Verlauf_18-47);}.cls-51{fill:url(#Unbenannter_Verlauf_18-48);}.cls-52{fill:url(#Unbenannter_Verlauf_18-49);}.cls-53{fill:url(#Unbenannter_Verlauf_18-50);}.cls-54{fill:url(#Unbenannter_Verlauf_18-51);}.cls-55{fill:url(#Unbenannter_Verlauf_18-52);}.cls-56{fill:url(#Unbenannter_Verlauf_18-53);}.cls-57{fill:url(#Unbenannter_Verlauf_18-54);}.cls-58{fill:url(#Unbenannter_Verlauf_18-55);}.cls-59{fill:url(#Unbenannter_Verlauf_18-56);}.cls-60{fill:url(#Unbenannter_Verlauf_18-57);}.cls-61{fill:url(#Unbenannter_Verlauf_18-58);}.cls-62{fill:url(#Unbenannter_Verlauf_18-59);}.cls-63{fill:url(#Unbenannter_Verlauf_18-60);}.cls-64{fill:url(#Unbenannter_Verlauf_18-61);}.cls-65{fill:url(#Unbenannter_Verlauf_18-62);}.cls-66{fill:url(#Unbenannter_Verlauf_18-63);}.cls-67{fill:url(#Unbenannter_Verlauf_18-64);}.cls-68{fill:url(#Unbenannter_Verlauf_18-65);}.cls-69{fill:url(#Unbenannter_Verlauf_18-66);}.cls-70{fill:url(#Unbenannter_Verlauf_18-67);}.cls-71{fill:url(#Unbenannter_Verlauf_18-68);}.cls-72{fill:url(#Unbenannter_Verlauf_18-69);}.cls-73{fill:url(#Unbenannter_Verlauf_18-70);}.cls-74{fill:url(#Unbenannter_Verlauf_18-71);}.cls-75{fill:url(#Unbenannter_Verlauf_18-72);}.cls-76{fill:url(#Unbenannter_Verlauf_18-73);}.cls-77{fill:url(#Unbenannter_Verlauf_18-74);}.cls-78{fill:url(#Unbenannter_Verlauf_18-75);}.cls-79{fill:url(#Unbenannter_Verlauf_18-76);}.cls-80{fill:url(#Unbenannter_Verlauf_18-77);}.cls-81{fill:url(#Unbenannter_Verlauf_18-78);}.cls-82{fill:url(#Unbenannter_Verlauf_18-79);}.cls-83{fill:url(#Unbenannter_Verlauf_18-80);}.cls-84{fill:url(#Unbenannter_Verlauf_18-81);}.cls-85{fill:url(#Unbenannter_Verlauf_18-82);}.cls-86{fill:url(#Unbenannter_Verlauf_18-83);}.cls-87{fill:url(#Unbenannter_Verlauf_18-84);}.cls-88{fill:url(#Unbenannter_Verlauf_18-85);}.cls-89{fill:url(#Unbenannter_Verlauf_18-86);}.cls-90{fill:url(#Unbenannter_Verlauf_18-87);}.cls-91{fill:url(#Unbenannter_Verlauf_18-88);}.cls-92{fill:url(#Unbenannter_Verlauf_18-89);}.cls-93{fill:url(#Unbenannter_Verlauf_18-90);}.cls-94{fill:url(#Unbenannter_Verlauf_18-91);}.cls-95{fill:url(#Unbenannter_Verlauf_18-92);}.cls-96{fill:url(#Unbenannter_Verlauf_18-93);}.cls-97{fill:url(#Unbenannter_Verlauf_18-94);}.cls-98{fill:url(#Unbenannter_Verlauf_18-95);}.cls-99{fill:url(#Unbenannter_Verlauf_18-96);}.cls-100{fill:url(#Unbenannter_Verlauf_18-97);}.cls-101{fill:url(#Unbenannter_Verlauf_18-98);}.cls-102{fill:url(#Unbenannter_Verlauf_18-99);}.cls-103{fill:url(#Unbenannter_Verlauf_18-100);}.cls-104{fill:url(#Unbenannter_Verlauf_18-101);}.cls-105{fill:url(#Unbenannter_Verlauf_18-102);}.cls-106{fill:url(#Unbenannter_Verlauf_18-103);}.cls-107{fill:url(#Unbenannter_Verlauf_18-104);}.cls-108{fill:url(#Unbenannter_Verlauf_18-105);}.cls-109{fill:url(#Unbenannter_Verlauf_18-106);}.cls-110{fill:url(#Unbenannter_Verlauf_18-107);}.cls-111{fill:url(#Unbenannter_Verlauf_18-108);}.cls-112{fill:url(#Unbenannter_Verlauf_18-109);}.cls-113{fill:url(#Unbenannter_Verlauf_18-110);}.cls-114{fill:url(#Unbenannter_Verlauf_18-111);}.cls-115{fill:url(#Unbenannter_Verlauf_18-112);}.cls-116{fill:url(#Unbenannter_Verlauf_18-113);}.cls-117{fill:url(#Unbenannter_Verlauf_18-114);}.cls-118{fill:url(#Unbenannter_Verlauf_18-115);}.cls-119{fill:url(#Unbenannter_Verlauf_18-116);}.cls-120{fill:url(#Unbenannter_Verlauf_18-117);}.cls-121{fill:url(#Unbenannter_Verlauf_18-118);}.cls-122{fill:url(#Unbenannter_Verlauf_18-119);}.cls-123{fill:url(#Unbenannter_Verlauf_18-120);}.cls-124{fill:url(#Unbenannter_Verlauf_18-121);}.cls-125{fill:url(#Unbenannter_Verlauf_18-122);}.cls-126{fill:url(#Unbenannter_Verlauf_18-123);}.cls-127{fill:url(#Unbenannter_Verlauf_18-124);}.cls-128{fill:url(#Unbenannter_Verlauf_18-125);}.cls-129{fill:url(#Unbenannter_Verlauf_18-126);}.cls-130{fill:url(#Unbenannter_Verlauf_18-127);}.cls-131{fill:url(#Unbenannter_Verlauf_18-128);}.cls-132{fill:url(#Unbenannter_Verlauf_18-129);}.cls-133{fill:url(#Unbenannter_Verlauf_18-130);}.cls-134{fill:url(#Unbenannter_Verlauf_18-131);}.cls-135{fill:url(#Unbenannter_Verlauf_18-132);}.cls-136{fill:url(#Unbenannter_Verlauf_18-133);}.cls-137{fill:url(#Unbenannter_Verlauf_18-134);}.cls-138{fill:url(#Unbenannter_Verlauf_18-135);}.cls-139{fill:url(#Unbenannter_Verlauf_18-136);}.cls-140{fill:url(#Unbenannter_Verlauf_18-137);}.cls-141{fill:url(#Unbenannter_Verlauf_18-138);}.cls-142{fill:url(#Unbenannter_Verlauf_18-139);}.cls-143{fill:url(#Unbenannter_Verlauf_18-140);}.cls-144{fill:url(#Unbenannter_Verlauf_18-141);}.cls-145{fill:url(#Unbenannter_Verlauf_18-142);}.cls-146{fill:url(#Unbenannter_Verlauf_18-143);}.cls-147{fill:url(#Unbenannter_Verlauf_18-144);}</style><radialGradient id="Unbenannter_Verlauf_267" cx="381" cy="381" r="622.68" gradientUnits="userSpaceOnUse"><stop offset="0" stop-color="#84a94f"/><stop offset="0.43" stop-color="#82a74e"/><stop offset="0.59" stop-color="#7da04b"/><stop offset="0.71" stop-color="#749445"/><stop offset="0.81" stop-color="#66833d"/><stop offset="0.89" stop-color="#556d33"/><stop offset="0.96" stop-color="#405226"/><stop offset="1" stop-color="#33411e"/></radialGradient><radialGradient id="Unbenannter_Verlauf_18" cx="95.25" cy="31.75" r="31.75" gradientUnits="userSpaceOnUse"><stop offset="0" stop-color="#fff"/><stop offset="1"/></radialGradient><radialGradient id="Unbenannter_Verlauf_18-2" cx="31.75" r="31.75" xlink:href="#Unbenannter_Verlauf_18"/><radialGradient id="Unbenannter_Verlauf_18-3" cx="222.25" r="31.75" xlink:href="#Unbenannter_Verlauf_18"/><radialGradient id="Unbenannter_Verlauf_18-4" cx="158.75" r="31.75" xlink:href="#Unbenannter_Verlauf_18"/><radialGradient id="Unbenannter_Verlauf_18-5" cx="349.25" r="31.75" xlink:href="#Unbenannter_Verlauf_18"/><radialGradient id="Unbenannter_Verlauf_18-6" cx="285.75" r="31.75" xlink:href="#Unbenannter_Verlauf_18"/><radialGradient id="Unbenannter_Verlauf_18-7" cx="476.25" r="31.75" xlink:href="#Unbenannter_Verlauf_18"/><radialGradient id="Unbenannter_Verlauf_18-8" cx="412.75" r="31.75" xlink:href="#Unbenannter_Verlauf_18"/><radialGradient id="Unbenannter_Verlauf_18-9" cx="603.25" r="31.75" xlink:href="#Unbenannter_Verlauf_18"/><radialGradient id="Unbenannter_Verlauf_18-10" cx="539.75" r="31.75" xlink:href="#Unbenannter_Verlauf_18"/><radialGradient id="Unbenannter_Verlauf_18-11" cx="730.25" r="31.75" xlink:href="#Unbenannter_Verlauf_18"/><radialGradient id="Unbenannter_Verlauf_18-12" cx="666.75" r="31.75" xlink:href="#Unbenannter_Verlauf_18"/><radialGradient id="Unbenannter_Verlauf_18-13" cy="95.25" r="31.75" xlink:href="#Unbenannter_Verlauf_18"/><radialGradient id="Unbenannter_Verlauf_18-14" cx="31.75" cy="95.25" r="31.75" xlink:href="#Unbenannter_Verlauf_18"/><radialGradient id="Unbenannter_Verlauf_18-15" cx="222.25" cy="95.25" r="31.75" xlink:href="#Unbenannter_Verlauf_18"/><radialGradient id="Unbenannter_Verlauf_18-16" cx="158.75" cy="95.25" r="31.75" xlink:href="#Unbenannter_Verlauf_18"/><radialGradient id="Unbenannter_Verlauf_18-17" cx="349.25" cy="95.25" r="31.75" xlink:href="#Unbenannter_Verlauf_18"/><radialGradient id="Unbenannter_Verlauf_18-18" cx="285.75" cy="95.25" r="31.75" xlink:href="#Unbenannter_Verlauf_18"/><radialGradient id="Unbenannter_Verlauf_18-19" cx="476.25" cy="95.25" r="31.75" xlink:href="#Unbenannter_Verlauf_18"/><radialGradient id="Unbenannter_Verlauf_18-20" cx="412.75" cy="95.25" r="31.75" xlink:href="#Unbenannter_Verlauf_18"/><radialGradient id="Unbenannter_Verlauf_18-21" cx="603.25" cy="95.25" r="31.75" xlink:href="#Unbenannter_Verlauf_18"/><radialGradient id="Unbenannter_Verlauf_18-22" cx="539.75" cy="95.25" r="31.75" xlink:href="#Unbenannter_Verlauf_18"/><radialGradient id="Unbenannter_Verlauf_18-23" cx="730.25" cy="95.25" r="31.75" xlink:href="#Unbenannter_Verlauf_18"/><radialGradient id="Unbenannter_Verlauf_18-24" cx="666.75" cy="95.25" r="31.75" xlink:href="#Unbenannter_Verlauf_18"/><radialGradient id="Unbenannter_Verlauf_18-25" cy="158.75" r="31.75" xlink:href="#Unbenannter_Verlauf_18"/><radialGradient id="Unbenannter_Verlauf_18-26" cx="31.75" cy="158.75" r="31.75" xlink:href="#Unbenannter_Verlauf_18"/><radialGradient id="Unbenannter_Verlauf_18-27" cx="222.25" cy="158.75" r="31.75" xlink:href="#Unbenannter_Verlauf_18"/><radialGradient id="Unbenannter_Verlauf_18-28" cx="158.75" cy="158.75" r="31.75" xlink:href="#Unbenannter_Verlauf_18"/><radialGradient id="Unbenannter_Verlauf_18-29" cx="349.25" cy="158.75" r="31.75" xlink:href="#Unbenannter_Verlauf_18"/><radialGradient id="Unbenannter_Verlauf_18-30" cx="285.75" cy="158.75" r="31.75" xlink:href="#Unbenannter_Verlauf_18"/><radialGradient id="Unbenannter_Verlauf_18-31" cx="476.25" cy="158.75" r="31.75" xlink:href="#Unbenannter_Verlauf_18"/><radialGradient id="Unbenannter_Verlauf_18-32" cx="412.75" cy="158.75" r="31.75" xlink:href="#Unbenannter_Verlauf_18"/><radialGradient id="Unbenannter_Verlauf_18-33" cx="603.25" cy="158.75" r="31.75" xlink:href="#Unbenannter_Verlauf_18"/><radialGradient id="Unbenannter_Verlauf_18-34" cx="539.75" cy="158.75" r="31.75" xlink:href="#Unbenannter_Verlauf_18"/><radialGradient id="Unbenannter_Verlauf_18-35" cx="730.25" cy="158.75" r="31.75" xlink:href="#Unbenannter_Verlauf_18"/><radialGradient id="Unbenannter_Verlauf_18-36" cx="666.75" cy="158.75" r="31.75" xlink:href="#Unbenannter_Verlauf_18"/><radialGradient id="Unbenannter_Verlauf_18-37" cy="222.25" r="31.75" xlink:href="#Unbenannter_Verlauf_18"/><radialGradient id="Unbenannter_Verlauf_18-38" cx="31.75" cy="222.25" r="31.75" xlink:href="#Unbenannter_Verlauf_18"/><radialGradient id="Unbenannter_Verlauf_18-39" cx="222.25" cy="222.25" r="31.75" xlink:href="#Unbenannter_Verlauf_18"/><radialGradient id="Unbenannter_Verlauf_18-40" cx="158.75" cy="222.25" r="31.75" xlink:href="#Unbenannter_Verlauf_18"/><radialGradient id="Unbenannter_Verlauf_18-41" cx="349.25" cy="222.25" r="31.75" xlink:href="#Unbenannter_Verlauf_18"/><radialGradient id="Unbenannter_Verlauf_18-42" cx="285.75" cy="222.25" r="31.75" xlink:href="#Unbenannter_Verlauf_18"/><radialGradient id="Unbenannter_Verlauf_18-43" cx="476.25" cy="222.25" r="31.75" xlink:href="#Unbenannter_Verlauf_18"/><radialGradient id="Unbenannter_Verlauf_18-44" cx="412.75" cy="222.25" r="31.75" xlink:href="#Unbenannter_Verlauf_18"/><radialGradient id="Unbenannter_Verlauf_18-45" cx="603.25" cy="222.25" r="31.75" xlink:href="#Unbenannter_Verlauf_18"/><radialGradient id="Unbenannter_Verlauf_18-46" cx="539.75" cy="222.25" r="31.75" xlink:href="#Unbenannter_Verlauf_18"/><radialGradient id="Unbenannter_Verlauf_18-47" cx="730.25" cy="222.25" r="31.75" xlink:href="#Unbenannter_Verlauf_18"/><radialGradient id="Unbenannter_Verlauf_18-48" cx="666.75" cy="222.25" r="31.75" xlink:href="#Unbenannter_Verlauf_18"/><radialGradient id="Unbenannter_Verlauf_18-49" cy="285.75" r="31.75" xlink:href="#Unbenannter_Verlauf_18"/><radialGradient id="Unbenannter_Verlauf_18-50" cx="31.75" cy="285.75" r="31.75" xlink:href="#Unbenannter_Verlauf_18"/><radialGradient id="Unbenannter_Verlauf_18-51" cx="222.25" cy="285.75" r="31.75" xlink:href="#Unbenannter_Verlauf_18"/><radialGradient id="Unbenannter_Verlauf_18-52" cx="158.75" cy="285.75" r="31.75" xlink:href="#Unbenannter_Verlauf_18"/><radialGradient id="Unbenannter_Verlauf_18-53" cx="349.25" cy="285.75" r="31.75" xlink:href="#Unbenannter_Verlauf_18"/><radialGradient id="Unbenannter_Verlauf_18-54" cx="285.75" cy="285.75" r="31.75" xlink:href="#Unbenannter_Verlauf_18"/><radialGradient id="Unbenannter_Verlauf_18-55" cx="476.25" cy="285.75" r="31.75" xlink:href="#Unbenannter_Verlauf_18"/><radialGradient id="Unbenannter_Verlauf_18-56" cx="412.75" cy="285.75" r="31.75" xlink:href="#Unbenannter_Verlauf_18"/><radialGradient id="Unbenannter_Verlauf_18-57" cx="603.25" cy="285.75" r="31.75" xlink:href="#Unbenannter_Verlauf_18"/><radialGradient id="Unbenannter_Verlauf_18-58" cx="539.75" cy="285.75" r="31.75" xlink:href="#Unbenannter_Verlauf_18"/><radialGradient id="Unbenannter_Verlauf_18-59" cx="730.25" cy="285.75" r="31.75" xlink:href="#Unbenannter_Verlauf_18"/><radialGradient id="Unbenannter_Verlauf_18-60" cx="666.75" cy="285.75" r="31.75" xlink:href="#Unbenannter_Verlauf_18"/><radialGradient id="Unbenannter_Verlauf_18-61" cy="349.25" r="31.75" xlink:href="#Unbenannter_Verlauf_18"/><radialGradient id="Unbenannter_Verlauf_18-62" cx="31.75" cy="349.25" r="31.75" xlink:href="#Unbenannter_Verlauf_18"/><radialGradient id="Unbenannter_Verlauf_18-63" cx="222.25" cy="349.25" r="31.75" xlink:href="#Unbenannter_Verlauf_18"/><radialGradient id="Unbenannter_Verlauf_18-64" cx="158.75" cy="349.25" r="31.75" xlink:href="#Unbenannter_Verlauf_18"/><radialGradient id="Unbenannter_Verlauf_18-65" cx="349.25" cy="349.25" r="31.75" xlink:href="#Unbenannter_Verlauf_18"/><radialGradient id="Unbenannter_Verlauf_18-66" cx="285.75" cy="349.25" r="31.75" xlink:href="#Unbenannter_Verlauf_18"/><radialGradient id="Unbenannter_Verlauf_18-67" cx="476.25" cy="349.25" r="31.75" xlink:href="#Unbenannter_Verlauf_18"/><radialGradient id="Unbenannter_Verlauf_18-68" cx="412.75" cy="349.25" r="31.75" xlink:href="#Unbenannter_Verlauf_18"/><radialGradient id="Unbenannter_Verlauf_18-69" cx="603.25" cy="349.25" r="31.75" xlink:href="#Unbenannter_Verlauf_18"/><radialGradient id="Unbenannter_Verlauf_18-70" cx="539.75" cy="349.25" r="31.75" xlink:href="#Unbenannter_Verlauf_18"/><radialGradient id="Unbenannter_Verlauf_18-71" cx="730.25" cy="349.25" r="31.75" xlink:href="#Unbenannter_Verlauf_18"/><radialGradient id="Unbenannter_Verlauf_18-72" cx="666.75" cy="349.25" r="31.75" xlink:href="#Unbenannter_Verlauf_18"/><radialGradient id="Unbenannter_Verlauf_18-73" cy="412.75" r="31.75" xlink:href="#Unbenannter_Verlauf_18"/><radialGradient id="Unbenannter_Verlauf_18-74" cx="31.75" cy="412.75" r="31.75" xlink:href="#Unbenannter_Verlauf_18"/><radialGradient id="Unbenannter_Verlauf_18-75" cx="222.25" cy="412.75" r="31.75" xlink:href="#Unbenannter_Verlauf_18"/><radialGradient id="Unbenannter_Verlauf_18-76" cx="158.75" cy="412.75" r="31.75" xlink:href="#Unbenannter_Verlauf_18"/><radialGradient id="Unbenannter_Verlauf_18-77" cx="349.25" cy="412.75" r="31.75" xlink:href="#Unbenannter_Verlauf_18"/><radialGradient id="Unbenannter_Verlauf_18-78" cx="285.75" cy="412.75" r="31.75" xlink:href="#Unbenannter_Verlauf_18"/><radialGradient id="Unbenannter_Verlauf_18-79" cx="476.25" cy="412.75" r="31.75" xlink:href="#Unbenannter_Verlauf_18"/><radialGradient id="Unbenannter_Verlauf_18-80" cx="412.75" cy="412.75" r="31.75" xlink:href="#Unbenannter_Verlauf_18"/><radialGradient id="Unbenannter_Verlauf_18-81" cx="603.25" cy="412.75" r="31.75" xlink:href="#Unbenannter_Verlauf_18"/><radialGradient id="Unbenannter_Verlauf_18-82" cx="539.75" cy="412.75" r="31.75" xlink:href="#Unbenannter_Verlauf_18"/><radialGradient id="Unbenannter_Verlauf_18-83" cx="730.25" cy="412.75" r="31.75" xlink:href="#Unbenannter_Verlauf_18"/><radialGradient id="Unbenannter_Verlauf_18-84" cx="666.75" cy="412.75" r="31.75" xlink:href="#Unbenannter_Verlauf_18"/><radialGradient id="Unbenannter_Verlauf_18-85" cy="476.25" r="31.75" xlink:href="#Unbenannter_Verlauf_18"/><radialGradient id="Unbenannter_Verlauf_18-86" cx="31.75" cy="476.25" r="31.75" xlink:href="#Unbenannter_Verlauf_18"/><radialGradient id="Unbenannter_Verlauf_18-87" cx="222.25" cy="476.25" r="31.75" xlink:href="#Unbenannter_Verlauf_18"/><radialGradient id="Unbenannter_Verlauf_18-88" cx="158.75" cy="476.25" r="31.75" xlink:href="#Unbenannter_Verlauf_18"/><radialGradient id="Unbenannter_Verlauf_18-89" cx="349.25" cy="476.25" r="31.75" xlink:href="#Unbenannter_Verlauf_18"/><radialGradient id="Unbenannter_Verlauf_18-90" cx="285.75" cy="476.25" r="31.75" xlink:href="#Unbenannter_Verlauf_18"/><radialGradient id="Unbenannter_Verlauf_18-91" cx="476.25" cy="476.25" r="31.75" xlink:href="#Unbenannter_Verlauf_18"/><radialGradient id="Unbenannter_Verlauf_18-92" cx="412.75" cy="476.25" r="31.75" xlink:href="#Unbenannter_Verlauf_18"/><radialGradient id="Unbenannter_Verlauf_18-93" cx="603.25" cy="476.25" r="31.75" xlink:href="#Unbenannter_Verlauf_18"/><radialGradient id="Unbenannter_Verlauf_18-94" cx="539.75" cy="476.25" r="31.75" xlink:href="#Unbenannter_Verlauf_18"/><radialGradient id="Unbenannter_Verlauf_18-95" cx="730.25" cy="476.25" r="31.75" xlink:href="#Unbenannter_Verlauf_18"/><radialGradient id="Unbenannter_Verlauf_18-96" cx="666.75" cy="476.25" r="31.75" xlink:href="#Unbenannter_Verlauf_18"/><radialGradient id="Unbenannter_Verlauf_18-97" cy="539.75" r="31.75" xlink:href="#Unbenannter_Verlauf_18"/><radialGradient id="Unbenannter_Verlauf_18-98" cx="31.75" cy="539.75" r="31.75" xlink:href="#Unbenannter_Verlauf_18"/><radialGradient id="Unbenannter_Verlauf_18-99" cx="222.25" cy="539.75" r="31.75" xlink:href="#Unbenannter_Verlauf_18"/><radialGradient id="Unbenannter_Verlauf_18-100" cx="158.75" cy="539.75" r="31.75" xlink:href="#Unbenannter_Verlauf_18"/><radialGradient id="Unbenannter_Verlauf_18-101" cx="349.25" cy="539.75" r="31.75" xlink:href="#Unbenannter_Verlauf_18"/><radialGradient id="Unbenannter_Verlauf_18-102" cx="285.75" cy="539.75" r="31.75" xlink:href="#Unbenannter_Verlauf_18"/><radialGradient id="Unbenannter_Verlauf_18-103" cx="476.25" cy="539.75" r="31.75" xlink:href="#Unbenannter_Verlauf_18"/><radialGradient id="Unbenannter_Verlauf_18-104" cx="412.75" cy="539.75" r="31.75" xlink:href="#Unbenannter_Verlauf_18"/><radialGradient id="Unbenannter_Verlauf_18-105" cx="603.25" cy="539.75" r="31.75" xlink:href="#Unbenannter_Verlauf_18"/><radialGradient id="Unbenannter_Verlauf_18-106" cx="539.75" cy="539.75" r="31.75" xlink:href="#Unbenannter_Verlauf_18"/><radialGradient id="Unbenannter_Verlauf_18-107" cx="730.25" cy="539.75" r="31.75" xlink:href="#Unbenannter_Verlauf_18"/><radialGradient id="Unbenannter_Verlauf_18-108" cx="666.75" cy="539.75" r="31.75" xlink:href="#Unbenannter_Verlauf_18"/><radialGradient id="Unbenannter_Verlauf_18-109" cy="603.25" r="31.75" xlink:href="#Unbenannter_Verlauf_18"/><radialGradient id="Unbenannter_Verlauf_18-110" cx="31.75" cy="603.25" r="31.75" xlink:href="#Unbenannter_Verlauf_18"/><radialGradient id="Unbenannter_Verlauf_18-111" cx="222.25" cy="603.25" r="31.75" xlink:href="#Unbenannter_Verlauf_18"/><radialGradient id="Unbenannter_Verlauf_18-112" cx="158.75" cy="603.25" r="31.75" xlink:href="#Unbenannter_Verlauf_18"/><radialGradient id="Unbenannter_Verlauf_18-113" cx="349.25" cy="603.25" r="31.75" xlink:href="#Unbenannter_Verlauf_18"/><radialGradient id="Unbenannter_Verlauf_18-114" cx="285.75" cy="603.25" r="31.75" xlink:href="#Unbenannter_Verlauf_18"/><radialGradient id="Unbenannter_Verlauf_18-115" cx="476.25" cy="603.25" r="31.75" xlink:href="#Unbenannter_Verlauf_18"/><radialGradient id="Unbenannter_Verlauf_18-116" cx="412.75" cy="603.25" r="31.75" xlink:href="#Unbenannter_Verlauf_18"/><radialGradient id="Unbenannter_Verlauf_18-117" cx="603.25" cy="603.25" r="31.75" xlink:href="#Unbenannter_Verlauf_18"/><radialGradient id="Unbenannter_Verlauf_18-118" cx="539.75" cy="603.25" r="31.75" xlink:href="#Unbenannter_Verlauf_18"/><radialGradient id="Unbenannter_Verlauf_18-119" cx="730.25" cy="603.25" r="31.75" xlink:href="#Unbenannter_Verlauf_18"/><radialGradient id="Unbenannter_Verlauf_18-120" cx="666.75" cy="603.25" r="31.75" xlink:href="#Unbenannter_Verlauf_18"/><radialGradient id="Unbenannter_Verlauf_18-121" cy="666.75" r="31.75" xlink:href="#Unbenannter_Verlauf_18"/><radialGradient id="Unbenannter_Verlauf_18-122" cx="31.75" cy="666.75" r="31.75" xlink:href="#Unbenannter_Verlauf_18"/><radialGradient id="Unbenannter_Verlauf_18-123" cx="222.25" cy="666.75" r="31.75" xlink:href="#Unbenannter_Verlauf_18"/><radialGradient id="Unbenannter_Verlauf_18-124" cx="158.75" cy="666.75" r="31.75" xlink:href="#Unbenannter_Verlauf_18"/><radialGradient id="Unbenannter_Verlauf_18-125" cx="349.25" cy="666.75" r="31.75" xlink:href="#Unbenannter_Verlauf_18"/><radialGradient id="Unbenannter_Verlauf_18-126" cx="285.75" cy="666.75" r="31.75" xlink:href="#Unbenannter_Verlauf_18"/><radialGradient id="Unbenannter_Verlauf_18-127" cx="476.25" cy="666.75" r="31.75" xlink:href="#Unbenannter_Verlauf_18"/><radialGradient id="Unbenannter_Verlauf_18-128" cx="412.75" cy="666.75" r="31.75" xlink:href="#Unbenannter_Verlauf_18"/><radialGradient id="Unbenannter_Verlauf_18-129" cx="603.25" cy="666.75" r="31.75" xlink:href="#Unbenannter_Verlauf_18"/><radialGradient id="Unbenannter_Verlauf_18-130" cx="539.75" cy="666.75" r="31.75" xlink:href="#Unbenannter_Verlauf_18"/><radialGradient id="Unbenannter_Verlauf_18-131" cx="730.25" cy="666.75" r="31.75" xlink:href="#Unbenannter_Verlauf_18"/><radialGradient id="Unbenannter_Verlauf_18-132" cx="666.75" cy="666.75" r="31.75" xlink:href="#Unbenannter_Verlauf_18"/><radialGradient id="Unbenannter_Verlauf_18-133" cy="730.25" r="31.75" xlink:href="#Unbenannter_Verlauf_18"/><radialGradient id="Unbenannter_Verlauf_18-134" cx="31.75" cy="730.25" r="31.75" xlink:href="#Unbenannter_Verlauf_18"/><radialGradient id="Unbenannter_Verlauf_18-135" cx="222.25" cy="730.25" r="31.75" xlink:href="#Unbenannter_Verlauf_18"/><radialGradient id="Unbenannter_Verlauf_18-136" cx="158.75" cy="730.25" r="31.75" xlink:href="#Unbenannter_Verlauf_18"/><radialGradient id="Unbenannter_Verlauf_18-137" cx="349.25" cy="730.25" r="31.75" xlink:href="#Unbenannter_Verlauf_18"/><radialGradient id="Unbenannter_Verlauf_18-138" cx="285.75" cy="730.25" r="31.75" xlink:href="#Unbenannter_Verlauf_18"/><radialGradient id="Unbenannter_Verlauf_18-139" cx="476.25" cy="730.25" r="31.75" xlink:href="#Unbenannter_Verlauf_18"/><radialGradient id="Unbenannter_Verlauf_18-140" cx="412.75" cy="730.25" r="31.75" xlink:href="#Unbenannter_Verlauf_18"/><radialGradient id="Unbenannter_Verlauf_18-141" cx="603.25" cy="730.25" r="31.75" xlink:href="#Unbenannter_Verlauf_18"/><radialGradient id="Unbenannter_Verlauf_18-142" cx="539.75" cy="730.25" r="31.75" xlink:href="#Unbenannter_Verlauf_18"/><radialGradient id="Unbenannter_Verlauf_18-143" cx="730.25" cy="730.25" r="31.75" xlink:href="#Unbenannter_Verlauf_18"/><radialGradient id="Unbenannter_Verlauf_18-144" cx="666.75" cy="730.25" r="31.75" xlink:href="#Unbenannter_Verlauf_18"/></defs><title>field</title><g id="board"><rect class="cls-1" width="762" height="762"/></g><g id="board-2" data-name="board"><rect class="cls-1" width="762" height="762"/><g id="Schachmuster"><g class="cls-2"><rect width="63.5" height="63.5"/></g><g class="cls-2"><rect x="127" width="63.5" height="63.5"/></g><g class="cls-2"><rect x="254" width="63.5" height="63.5"/></g><g class="cls-2"><rect x="381" width="63.5" height="63.5"/></g><g class="cls-2"><rect x="508" width="63.5" height="63.5"/></g><g class="cls-2"><rect x="635" width="63.5" height="63.5"/></g><g class="cls-2"><rect x="63.5" y="63.5" width="63.5" height="63.5"/></g><g class="cls-2"><rect x="190.5" y="63.5" width="63.5" height="63.5"/></g><g class="cls-2"><rect x="317.5" y="63.5" width="63.5" height="63.5"/></g><g class="cls-2"><rect x="444.5" y="63.5" width="63.5" height="63.5"/></g><g class="cls-2"><rect x="571.5" y="63.5" width="63.5" height="63.5"/></g><g class="cls-2"><rect x="698.5" y="63.5" width="63.5" height="63.5"/></g><g class="cls-2"><rect y="127" width="63.5" height="63.5"/></g><g class="cls-2"><rect x="127" y="127" width="63.5" height="63.5"/></g><g class="cls-2"><rect x="254" y="127" width="63.5" height="63.5"/></g><g class="cls-2"><rect x="381" y="127" width="63.5" height="63.5"/></g><g class="cls-2"><rect x="508" y="127" width="63.5" height="63.5"/></g><g class="cls-2"><rect x="635" y="127" width="63.5" height="63.5"/></g><g class="cls-2"><rect x="63.5" y="190.5" width="63.5" height="63.5"/></g><g class="cls-2"><rect x="190.5" y="190.5" width="63.5" height="63.5"/></g><g class="cls-2"><rect x="317.5" y="190.5" width="63.5" height="63.5"/></g><g class="cls-2"><rect x="444.5" y="190.5" width="63.5" height="63.5"/></g><g class="cls-2"><rect x="571.5" y="190.5" width="63.5" height="63.5"/></g><g class="cls-2"><rect x="698.5" y="190.5" width="63.5" height="63.5"/></g><g class="cls-2"><rect y="254" width="63.5" height="63.5"/></g><g class="cls-2"><rect x="127" y="254" width="63.5" height="63.5"/></g><g class="cls-2"><rect x="254" y="254" width="63.5" height="63.5"/></g><g class="cls-2"><rect x="381" y="254" width="63.5" height="63.5"/></g><g class="cls-2"><rect x="508" y="254" width="63.5" height="63.5"/></g><g class="cls-2"><rect x="635" y="254" width="63.5" height="63.5"/></g><g class="cls-2"><rect x="63.5" y="317.5" width="63.5" height="63.5"/></g><g class="cls-2"><rect x="190.5" y="317.5" width="63.5" height="63.5"/></g><g class="cls-2"><rect x="317.5" y="317.5" width="63.5" height="63.5"/></g><g class="cls-2"><rect x="444.5" y="317.5" width="63.5" height="63.5"/></g><g class="cls-2"><rect x="571.5" y="317.5" width="63.5" height="63.5"/></g><g class="cls-2"><rect x="698.5" y="317.5" width="63.5" height="63.5"/></g><g class="cls-2"><rect y="381" width="63.5" height="63.5"/></g><g class="cls-2"><rect x="127" y="381" width="63.5" height="63.5"/></g><g class="cls-2"><rect x="254" y="381" width="63.5" height="63.5"/></g><g class="cls-2"><rect x="381" y="381" width="63.5" height="63.5"/></g><g class="cls-2"><rect x="508" y="381" width="63.5" height="63.5"/></g><g class="cls-2"><rect x="635" y="381" width="63.5" height="63.5"/></g><g class="cls-2"><rect x="63.5" y="444.5" width="63.5" height="63.5"/></g><g class="cls-2"><rect x="190.5" y="444.5" width="63.5" height="63.5"/></g><g class="cls-2"><rect x="317.5" y="444.5" width="63.5" height="63.5"/></g><g class="cls-2"><rect x="444.5" y="444.5" width="63.5" height="63.5"/></g><g class="cls-2"><rect x="571.5" y="444.5" width="63.5" height="63.5"/></g><g class="cls-2"><rect x="698.5" y="444.5" width="63.5" height="63.5"/></g><g class="cls-2"><rect y="508" width="63.5" height="63.5"/></g><g class="cls-2"><rect x="127" y="508" width="63.5" height="63.5"/></g><g class="cls-2"><rect x="254" y="508" width="63.5" height="63.5"/></g><g class="cls-2"><rect x="381" y="508" width="63.5" height="63.5"/></g><g class="cls-2"><rect x="508" y="508" width="63.5" height="63.5"/></g><g class="cls-2"><rect x="635" y="508" width="63.5" height="63.5"/></g><g class="cls-2"><rect x="63.5" y="571.5" width="63.5" height="63.5"/></g><g class="cls-2"><rect x="190.5" y="571.5" width="63.5" height="63.5"/></g><g class="cls-2"><rect x="317.5" y="571.5" width="63.5" height="63.5"/></g><g class="cls-2"><rect x="444.5" y="571.5" width="63.5" height="63.5"/></g><g class="cls-2"><rect x="571.5" y="571.5" width="63.5" height="63.5"/></g><g class="cls-2"><rect x="698.5" y="571.5" width="63.5" height="63.5"/></g><g class="cls-2"><rect y="635" width="63.5" height="63.5"/></g><g class="cls-2"><rect x="127" y="635" width="63.5" height="63.5"/></g><g class="cls-2"><rect x="254" y="635" width="63.5" height="63.5"/></g><g class="cls-2"><rect x="381" y="635" width="63.5" height="63.5"/></g><g class="cls-2"><rect x="508" y="635" width="63.5" height="63.5"/></g><g class="cls-2"><rect x="635" y="635" width="63.5" height="63.5"/></g><g class="cls-2"><rect x="63.5" y="698.5" width="63.5" height="63.5"/></g><g class="cls-2"><rect x="190.5" y="698.5" width="63.5" height="63.5"/></g><g class="cls-2"><rect x="317.5" y="698.5" width="63.5" height="63.5"/></g><g class="cls-2"><rect x="444.5" y="698.5" width="63.5" height="63.5"/></g><g class="cls-2"><rect x="571.5" y="698.5" width="63.5" height="63.5"/></g><g class="cls-2"><rect x="698.5" y="698.5" width="63.5" height="63.5"/></g></g><g id="smooth"><g class="cls-3"><rect class="cls-4" x="63.5" width="63.5" height="63.5"/></g><g class="cls-3"><rect class="cls-5" width="63.5" height="63.5"/></g><g class="cls-3"><rect class="cls-6" x="190.5" width="63.5" height="63.5"/></g><g class="cls-3"><rect class="cls-7" x="127" width="63.5" height="63.5"/></g><g class="cls-3"><rect class="cls-8" x="317.5" width="63.5" height="63.5"/></g><g class="cls-3"><rect class="cls-9" x="254" width="63.5" height="63.5"/></g><g class="cls-3"><rect class="cls-10" x="444.5" width="63.5" height="63.5"/></g><g class="cls-3"><rect class="cls-11" x="381" width="63.5" height="63.5"/></g><g class="cls-3"><rect class="cls-12" x="571.5" width="63.5" height="63.5"/></g><g class="cls-3"><rect class="cls-13" x="508" width="63.5" height="63.5"/></g><g class="cls-3"><rect class="cls-14" x="698.5" width="63.5" height="63.5"/></g><g class="cls-3"><rect class="cls-15" x="635" width="63.5" height="63.5"/></g><g class="cls-3"><rect class="cls-16" x="63.5" y="63.5" width="63.5" height="63.5"/></g><g class="cls-3"><rect class="cls-17" y="63.5" width="63.5" height="63.5"/></g><g class="cls-3"><rect class="cls-18" x="190.5" y="63.5" width="63.5" height="63.5"/></g><g class="cls-3"><rect class="cls-19" x="127" y="63.5" width="63.5" height="63.5"/></g><g class="cls-3"><rect class="cls-20" x="317.5" y="63.5" width="63.5" height="63.5"/></g><g class="cls-3"><rect class="cls-21" x="254" y="63.5" width="63.5" height="63.5"/></g><g class="cls-3"><rect class="cls-22" x="444.5" y="63.5" width="63.5" height="63.5"/></g><g class="cls-3"><rect class="cls-23" x="381" y="63.5" width="63.5" height="63.5"/></g><g class="cls-3"><rect class="cls-24" x="571.5" y="63.5" width="63.5" height="63.5"/></g><g class="cls-3"><rect class="cls-25" x="508" y="63.5" width="63.5" height="63.5"/></g><g class="cls-3"><rect class="cls-26" x="698.5" y="63.5" width="63.5" height="63.5"/></g><g class="cls-3"><rect class="cls-27" x="635" y="63.5" width="63.5" height="63.5"/></g><g class="cls-3"><rect class="cls-28" x="63.5" y="127" width="63.5" height="63.5"/></g><g class="cls-3"><rect class="cls-29" y="127" width="63.5" height="63.5"/></g><g class="cls-3"><rect class="cls-30" x="190.5" y="127" width="63.5" height="63.5"/></g><g class="cls-3"><rect class="cls-31" x="127" y="127" width="63.5" height="63.5"/></g><g class="cls-3"><rect class="cls-32" x="317.5" y="127" width="63.5" height="63.5"/></g><g class="cls-3"><rect class="cls-33" x="254" y="127" width="63.5" height="63.5"/></g><g class="cls-3"><rect class="cls-34" x="444.5" y="127" width="63.5" height="63.5"/></g><g class="cls-3"><rect class="cls-35" x="381" y="127" width="63.5" height="63.5"/></g><g class="cls-3"><rect class="cls-36" x="571.5" y="127" width="63.5" height="63.5"/></g><g class="cls-3"><rect class="cls-37" x="508" y="127" width="63.5" height="63.5"/></g><g class="cls-3"><rect class="cls-38" x="698.5" y="127" width="63.5" height="63.5"/></g><g class="cls-3"><rect class="cls-39" x="635" y="127" width="63.5" height="63.5"/></g><g class="cls-3"><rect class="cls-40" x="63.5" y="190.5" width="63.5" height="63.5"/></g><g class="cls-3"><rect class="cls-41" y="190.5" width="63.5" height="63.5"/></g><g class="cls-3"><rect class="cls-42" x="190.5" y="190.5" width="63.5" height="63.5"/></g><g class="cls-3"><rect class="cls-43" x="127" y="190.5" width="63.5" height="63.5"/></g><g class="cls-3"><rect class="cls-44" x="317.5" y="190.5" width="63.5" height="63.5"/></g><g class="cls-3"><rect class="cls-45" x="254" y="190.5" width="63.5" height="63.5"/></g><g class="cls-3"><rect class="cls-46" x="444.5" y="190.5" width="63.5" height="63.5"/></g><g class="cls-3"><rect class="cls-47" x="381" y="190.5" width="63.5" height="63.5"/></g><g class="cls-3"><rect class="cls-48" x="571.5" y="190.5" width="63.5" height="63.5"/></g><g class="cls-3"><rect class="cls-49" x="508" y="190.5" width="63.5" height="63.5"/></g><g class="cls-3"><rect class="cls-50" x="698.5" y="190.5" width="63.5" height="63.5"/></g><g class="cls-3"><rect class="cls-51" x="635" y="190.5" width="63.5" height="63.5"/></g><g class="cls-3"><rect class="cls-52" x="63.5" y="254" width="63.5" height="63.5"/></g><g class="cls-3"><rect class="cls-53" y="254" width="63.5" height="63.5"/></g><g class="cls-3"><rect class="cls-54" x="190.5" y="254" width="63.5" height="63.5"/></g><g class="cls-3"><rect class="cls-55" x="127" y="254" width="63.5" height="63.5"/></g><g class="cls-3"><rect class="cls-56" x="317.5" y="254" width="63.5" height="63.5"/></g><g class="cls-3"><rect class="cls-57" x="254" y="254" width="63.5" height="63.5"/></g><g class="cls-3"><rect class="cls-58" x="444.5" y="254" width="63.5" height="63.5"/></g><g class="cls-3"><rect class="cls-59" x="381" y="254" width="63.5" height="63.5"/></g><g class="cls-3"><rect class="cls-60" x="571.5" y="254" width="63.5" height="63.5"/></g><g class="cls-3"><rect class="cls-61" x="508" y="254" width="63.5" height="63.5"/></g><g class="cls-3"><rect class="cls-62" x="698.5" y="254" width="63.5" height="63.5"/></g><g class="cls-3"><rect class="cls-63" x="635" y="254" width="63.5" height="63.5"/></g><g class="cls-3"><rect class="cls-64" x="63.5" y="317.5" width="63.5" height="63.5"/></g><g class="cls-3"><rect class="cls-65" y="317.5" width="63.5" height="63.5"/></g><g class="cls-3"><rect class="cls-66" x="190.5" y="317.5" width="63.5" height="63.5"/></g><g class="cls-3"><rect class="cls-67" x="127" y="317.5" width="63.5" height="63.5"/></g><g class="cls-3"><rect class="cls-68" x="317.5" y="317.5" width="63.5" height="63.5"/></g><g class="cls-3"><rect class="cls-69" x="254" y="317.5" width="63.5" height="63.5"/></g><g class="cls-3"><rect class="cls-70" x="444.5" y="317.5" width="63.5" height="63.5"/></g><g class="cls-3"><rect class="cls-71" x="381" y="317.5" width="63.5" height="63.5"/></g><g class="cls-3"><rect class="cls-72" x="571.5" y="317.5" width="63.5" height="63.5"/></g><g class="cls-3"><rect class="cls-73" x="508" y="317.5" width="63.5" height="63.5"/></g><g class="cls-3"><rect class="cls-74" x="698.5" y="317.5" width="63.5" height="63.5"/></g><g class="cls-3"><rect class="cls-75" x="635" y="317.5" width="63.5" height="63.5"/></g><g class="cls-3"><rect class="cls-76" x="63.5" y="381" width="63.5" height="63.5"/></g><g class="cls-3"><rect class="cls-77" y="381" width="63.5" height="63.5"/></g><g class="cls-3"><rect class="cls-78" x="190.5" y="381" width="63.5" height="63.5"/></g><g class="cls-3"><rect class="cls-79" x="127" y="381" width="63.5" height="63.5"/></g><g class="cls-3"><rect class="cls-80" x="317.5" y="381" width="63.5" height="63.5"/></g><g class="cls-3"><rect class="cls-81" x="254" y="381" width="63.5" height="63.5"/></g><g class="cls-3"><rect class="cls-82" x="444.5" y="381" width="63.5" height="63.5"/></g><g class="cls-3"><rect class="cls-83" x="381" y="381" width="63.5" height="63.5"/></g><g class="cls-3"><rect class="cls-84" x="571.5" y="381" width="63.5" height="63.5"/></g><g class="cls-3"><rect class="cls-85" x="508" y="381" width="63.5" height="63.5"/></g><g class="cls-3"><rect class="cls-86" x="698.5" y="381" width="63.5" height="63.5"/></g><g class="cls-3"><rect class="cls-87" x="635" y="381" width="63.5" height="63.5"/></g><g class="cls-3"><rect class="cls-88" x="63.5" y="444.5" width="63.5" height="63.5"/></g><g class="cls-3"><rect class="cls-89" y="444.5" width="63.5" height="63.5"/></g><g class="cls-3"><rect class="cls-90" x="190.5" y="444.5" width="63.5" height="63.5"/></g><g class="cls-3"><rect class="cls-91" x="127" y="444.5" width="63.5" height="63.5"/></g><g class="cls-3"><rect class="cls-92" x="317.5" y="444.5" width="63.5" height="63.5"/></g><g class="cls-3"><rect class="cls-93" x="254" y="444.5" width="63.5" height="63.5"/></g><g class="cls-3"><rect class="cls-94" x="444.5" y="444.5" width="63.5" height="63.5"/></g><g class="cls-3"><rect class="cls-95" x="381" y="444.5" width="63.5" height="63.5"/></g><g class="cls-3"><rect class="cls-96" x="571.5" y="444.5" width="63.5" height="63.5"/></g><g class="cls-3"><rect class="cls-97" x="508" y="444.5" width="63.5" height="63.5"/></g><g class="cls-3"><rect class="cls-98" x="698.5" y="444.5" width="63.5" height="63.5"/></g><g class="cls-3"><rect class="cls-99" x="635" y="444.5" width="63.5" height="63.5"/></g><g class="cls-3"><rect class="cls-100" x="63.5" y="508" width="63.5" height="63.5"/></g><g class="cls-3"><rect class="cls-101" y="508" width="63.5" height="63.5"/></g><g class="cls-3"><rect class="cls-102" x="190.5" y="508" width="63.5" height="63.5"/></g><g class="cls-3"><rect class="cls-103" x="127" y="508" width="63.5" height="63.5"/></g><g class="cls-3"><rect class="cls-104" x="317.5" y="508" width="63.5" height="63.5"/></g><g class="cls-3"><rect class="cls-105" x="254" y="508" width="63.5" height="63.5"/></g><g class="cls-3"><rect class="cls-106" x="444.5" y="508" width="63.5" height="63.5"/></g><g class="cls-3"><rect class="cls-107" x="381" y="508" width="63.5" height="63.5"/></g><g class="cls-3"><rect class="cls-108" x="571.5" y="508" width="63.5" height="63.5"/></g><g class="cls-3"><rect class="cls-109" x="508" y="508" width="63.5" height="63.5"/></g><g class="cls-3"><rect class="cls-110" x="698.5" y="508" width="63.5" height="63.5"/></g><g class="cls-3"><rect class="cls-111" x="635" y="508" width="63.5" height="63.5"/></g><g class="cls-3"><rect class="cls-112" x="63.5" y="571.5" width="63.5" height="63.5"/></g><g class="cls-3"><rect class="cls-113" y="571.5" width="63.5" height="63.5"/></g><g class="cls-3"><rect class="cls-114" x="190.5" y="571.5" width="63.5" height="63.5"/></g><g class="cls-3"><rect class="cls-115" x="127" y="571.5" width="63.5" height="63.5"/></g><g class="cls-3"><rect class="cls-116" x="317.5" y="571.5" width="63.5" height="63.5"/></g><g class="cls-3"><rect class="cls-117" x="254" y="571.5" width="63.5" height="63.5"/></g><g class="cls-3"><rect class="cls-118" x="444.5" y="571.5" width="63.5" height="63.5"/></g><g class="cls-3"><rect class="cls-119" x="381" y="571.5" width="63.5" height="63.5"/></g><g class="cls-3"><rect class="cls-120" x="571.5" y="571.5" width="63.5" height="63.5"/></g><g class="cls-3"><rect class="cls-121" x="508" y="571.5" width="63.5" height="63.5"/></g><g class="cls-3"><rect class="cls-122" x="698.5" y="571.5" width="63.5" height="63.5"/></g><g class="cls-3"><rect class="cls-123" x="635" y="571.5" width="63.5" height="63.5"/></g><g class="cls-3"><rect class="cls-124" x="63.5" y="635" width="63.5" height="63.5"/></g><g class="cls-3"><rect class="cls-125" y="635" width="63.5" height="63.5"/></g><g class="cls-3"><rect class="cls-126" x="190.5" y="635" width="63.5" height="63.5"/></g><g class="cls-3"><rect class="cls-127" x="127" y="635" width="63.5" height="63.5"/></g><g class="cls-3"><rect class="cls-128" x="317.5" y="635" width="63.5" height="63.5"/></g><g class="cls-3"><rect class="cls-129" x="254" y="635" width="63.5" height="63.5"/></g><g class="cls-3"><rect class="cls-130" x="444.5" y="635" width="63.5" height="63.5"/></g><g class="cls-3"><rect class="cls-131" x="381" y="635" width="63.5" height="63.5"/></g><g class="cls-3"><rect class="cls-132" x="571.5" y="635" width="63.5" height="63.5"/></g><g class="cls-3"><rect class="cls-133" x="508" y="635" width="63.5" height="63.5"/></g><g class="cls-3"><rect class="cls-134" x="698.5" y="635" width="63.5" height="63.5"/></g><g class="cls-3"><rect class="cls-135" x="635" y="635" width="63.5" height="63.5"/></g><g class="cls-3"><rect class="cls-136" x="63.5" y="698.5" width="63.5" height="63.5"/></g><g class="cls-3"><rect class="cls-137" y="698.5" width="63.5" height="63.5"/></g><g class="cls-3"><rect class="cls-138" x="190.5" y="698.5" width="63.5" height="63.5"/></g><g class="cls-3"><rect class="cls-139" x="127" y="698.5" width="63.5" height="63.5"/></g><g class="cls-3"><rect class="cls-140" x="317.5" y="698.5" width="63.5" height="63.5"/></g><g class="cls-3"><rect class="cls-141" x="254" y="698.5" width="63.5" height="63.5"/></g><g class="cls-3"><rect class="cls-142" x="444.5" y="698.5" width="63.5" height="63.5"/></g><g class="cls-3"><rect class="cls-143" x="381" y="698.5" width="63.5" height="63.5"/></g><g class="cls-3"><rect class="cls-144" x="571.5" y="698.5" width="63.5" height="63.5"/></g><g class="cls-3"><rect class="cls-145" x="508" y="698.5" width="63.5" height="63.5"/></g><g class="cls-3"><rect class="cls-146" x="698.5" y="698.5" width="63.5" height="63.5"/></g><g class="cls-3"><rect class="cls-147" x="635" y="698.5" width="63.5" height="63.5"/></g></g></g></svg>