<svg id="export" xmlns="http://www.w3.org/2000/svg" xmlns:xlink="http://www.w3.org/1999/xlink" viewBox="0 0 762 762"><defs><style>.cls-1{fill:url(#Unbenannter_Verlauf_267);}.cls-2{opacity:0.1;}</style><radialGradient id="Unbenannter_Verlauf_267" cx="381" cy="381" r="622.68" gradientUnits="userSpaceOnUse"><stop offset="0" stop-color="#84a94f"/><stop offset="0.43" stop-color="#82a74e"/><stop offset="0.59" stop-color="#7da04b"/><stop offset="0.71" stop-color="#749445"/><stop offset="0.81" stop-color="#66833d"/><stop offset="0.89" stop-color="#556d33"/><stop offset="0.96" stop-color="#405226"/><stop offset="1" stop-color="#33411e"/></radialGradient></defs><title>board</title><g id="board"><rect class="cls-1" width="762" height="762"/><g class="cls-2"><rect width="63.5" height="63.5"/></g><g class="cls-2"><rect x="127" width="63.5" height="63.5"/></g><g class="cls-2"><rect x="254" width="63.5" height="63.5"/></g><g class="cls-2"><rect x="381" width="63.5" height="63.5"/></g><g class="cls-2"><rect x="508" width="63.5" height="63.5"/></g><g class="cls-2"><rect x="635" width="63.5" height="63.5"/></g><g class="cls-2"><rect x="63.5" y="63.5" width="63.5" height="63.5"/></g><g class="cls-2"><rect x="190.5" y="63.5" width="63.5" height="63.5"/></g><g class="cls-2"><rect x="317.5" y="63.5" width="63.5" height="63.5"/></g><g class="cls-2"><rect x="444.5" y="63.5" width="63.5" height="63.5"/></g><g class="cls-2"><rect x="571.5" y="63.5" width="63.5" height="63.5"/></g><g class="cls-2"><rect x="698.5" y="63.5" width="63.5" height="63.5"/></g><g class="cls-2"><rect y="127" width="63.5" height="63.5"/></g><g class="cls-2"><rect x="127" y="127" width="63.5" height="63.5"/></g><g class="cls-2"><rect x="254" y="127" width="63.5" height="63.5"/></g><g class="cls-2"><rect x="381" y="127" width="63.5" height="63.5"/></g><g class="cls-2"><rect x="508" y="127" width="63.5" height="63.5"/></g><g class="cls-2"><rect x="635" y="127" width="63.5" height="63.5"/></g><g class="cls-2"><rect x="63.5" y="190.5" width="63.5" height="63.5"/></g><g class="cls-2"><rect x="190.5" y="190.5" width="63.5" height="63.5"/></g><g class="cls-2"><rect x="317.5" y="190.5" width="63.5" height="63.5"/></g><g class="cls-2"><rect x="444.5" y="190.5" width="63.5" height="63.5"/></g><g class="cls-2"><rect x="571.5" y="190.5" width="63.5" height="63.5"/></g><g class="cls-2"><rect x="698.5" y="190.5" width="63.5" height="63.5"/></g><g class="cls-2"><rect y="254" width="63.5" height="63.5"/></g><g class="cls-2"><rect x="127" y="254" width="63.5" height="63.5"/></g><g class="cls-2"><rect x="254" y="254" width="63.5" height="63.5"/></g><g class="cls-2"><rect x="381" y="254" width="63.5" height="63.5"/></g><g class="cls-2"><rect x="508" y="254" width="63.5" height="63.5"/></g><g class="cls-2"><rect x="635" y="254" width="63.5" height="63.5"/></g><g class="cls-2"><rect x="63.5" y="317.5" width="63.5" height="63.5"/></g><g class="cls-2"><rect x="190.5" y="317.5" width="63.5" height="63.5"/></g><g class="cls-2"><rect x="317.5" y="317.5" width="63.5" height="63.5"/></g><g class="cls-2"><rect x="444.5" y="317.5" width="63.5" height="63.5"/></g><g class="cls-2"><rect x="571.5" y="317.5" width="63.5" height="63.5"/></g><g class="cls-2"><rect x="698.5" y="317.5" width="63.5" height="63.5"/></g><g class="cls-2"><rect y="381" width="63.5" height="63.5"/></g><g class="cls-2"><rect x="127" y="381" width="63.5" height="63.5"/></g><g class="cls-2"><rect x="254" y="381" width="63.5" height="63.5"/></g><g class="cls-2"><rect x="381" y="381" width="63.5" height="63.5"/></g><g class="cls-2"><rect x="508" y="381" width="63.5" height="63.5"/></g><g class="cls-2"><rect x="635" y="381" width="63.5" height="63.5"/></g><g class="cls-2"><rect x="63.5" y="444.5" width="63.5" height="63.5"/></g><g class="cls-2"><rect x="190.5" y="444.5" width="63.5" height="63.5"/></g><g class="cls-2"><rect x="317.5" y="444.5" width="63.5" height="63.5"/></g><g class="cls-2"><rect x="444.5" y="444.5" width="63.5" height="63.5"/></g><g class="cls-2"><rect x="571.5" y="444.5" width="63.5" height="63.5"/></g><g class="cls-2"><rect x="698.5" y="444.5" width="63.5" height="63.5"/></g><g class="cls-2"><rect y="508" width="63.5" height="63.5"/></g><g class="cls-2"><rect x="127" y="508" width="63.5" height="63.5"/></g><g class="cls-2"><rect x="254" y="508" width="63.5" height="63.5"/></g><g class="cls-2"><rect x="381" y="508" width="63.5" height="63.5"/></g><g class="cls-2"><rect x="508" y="508" width="63.5" height="63.5"/></g><g class="cls-2"><rect x="635" y="508" width="63.5" height="63.5"/></g><g class="cls-2"><rect x="63.5" y="571.5" width="63.5" height="63.5"/></g><g class="cls-2"><rect x="190.5" y="571.5" width="63.5" height="63.5"/></g><g class="cls-2"><rect x="317.5" y="571.5" width="63.5" height="63.5"/></g><g class="cls-2"><rect x="444.5" y="571.5" width="63.5" height="63.5"/></g><g class="cls-2"><rect x="571.5" y="571.5" width="63.5" height="63.5"/></g><g class="cls-2"><rect x="698.5" y="571.5" width="63.5" height="63.5"/></g><g class="cls-2"><rect y="635" width="63.5" height="63.5"/></g><g class="cls-2"><rect x="127" y="635" width="63.5" height="63.5"/></g><g class="cls-2"><rect x="254" y="635" width="63.5" height="63.5"/></g><g class="cls-2"><rect x="381" y="635" width="63.5" height="63.5"/></g><g class="cls-2"><rect x="508" y="635" width="63.5" height="63.5"/></g><g class="cls-2"><rect x="635" y="635" width="63.5" height="63.5"/></g><g class="cls-2"><rect x="63.5" y="698.5" width="63.5" height="63.5"/></g><g class="cls-2"><rect x="190.5" y="698.5" width="63.5" height="63.5"/></g><g class="cls-2"><rect x="317.5" y="698.5" width="63.5" height="63.5"/></g><g class="cls-2"><rect x="444.5" y="698.5" width="63.5" height="63.5"/></g><g class="cls-2"><rect x="571.5" y="698.5" width="63.5" height="63.5"/></g><g class="cls-2"><rect x="698.5" y="698.5" width="63.5" height="63.5"/></g></g></svg>